<svg width="180" height="183" viewBox="0 0 180 183" fill="none" xmlns="http://www.w3.org/2000/svg">
<path d="M18 111C8.1 111 0 119.1 0 129V165C0 169.774 1.89642 174.352 5.27208 177.728C8.64773 181.104 13.2261 183 18 183H162C171.99 183 180 174.99 180 165V129C180 124.226 178.104 119.648 174.728 116.272C171.352 112.896 166.774 111 162 111M63 129C67.7739 129 72.3523 130.896 75.7279 134.272C79.1036 137.648 81 142.226 81 147C81 156.99 72.99 165 63 165C58.2261 165 53.6477 163.104 50.2721 159.728C46.8964 156.352 45 151.774 45 147C45 142.226 46.8964 137.648 50.2721 134.272C53.6477 130.896 58.2261 129 63 129ZM117 129C121.774 129 126.352 130.896 129.728 134.272C133.104 137.648 135 142.226 135 147C135 156.99 126.99 165 117 165C112.226 165 107.648 163.104 104.272 159.728C100.896 156.352 99 151.774 99 147C99 142.226 100.896 137.648 104.272 134.272C107.648 130.896 112.226 129 117 129ZM27 138C31.95 138 36 142.05 36 147C36 151.95 31.95 156 27 156C22.05 156 18 151.95 18 147C18 142.05 22.05 138 27 138ZM63 138C58.05 138 54 142.05 54 147C54 151.95 58.05 156 63 156C67.95 156 72 151.95 72 147C72 142.05 67.95 138 63 138ZM117 138C112.05 138 108 142.05 108 147C108 151.95 112.05 156 117 156C121.95 156 126 151.95 126 147C126 142.05 121.95 138 117 138ZM153 138C157.95 138 162 142.05 162 147C162 151.95 157.95 156 153 156C148.05 156 144 151.95 144 147C144 142.05 148.05 138 153 138Z" fill="url(#paint0_linear_116_4)"/>
<path d="M87.8164 87.424V57.7215L69.057 76.4809C68.1751 77.3628 67.0527 77.8037 65.6899 77.8037C64.327 77.8037 63.2046 77.3628 62.3228 76.4809C61.4409 75.5991 61 74.4767 61 73.1138C61 71.751 61.4409 70.6286 62.3228 69.7468L85.8924 46.1772L62.3228 22.6076C61.4409 21.7257 61 20.6034 61 19.2405C61 17.8776 61.4409 16.7553 62.3228 15.8734C63.2046 14.9915 64.327 14.5506 65.6899 14.5506C67.0527 14.5506 68.1751 14.9915 69.057 15.8734L87.8164 34.6329V4.93037C87.8164 3.48734 88.2974 2.30565 89.2595 1.38531C90.2215 0.464978 91.3438 0.00320675 92.6265 0C93.2679 0 93.8692 0.120252 94.4303 0.360758C94.9915 0.601264 95.5126 0.962024 95.9936 1.44304L116.677 22.1266C117.158 22.6076 117.5 23.1287 117.702 23.6898C117.904 24.251 118.003 24.8523 118 25.4936C117.997 26.135 117.897 26.7363 117.702 27.2974C117.506 27.8586 117.165 28.3797 116.677 28.8607L99.3607 46.1772L116.677 63.4936C117.158 63.9746 117.5 64.4957 117.702 65.0569C117.904 65.6181 118.003 66.2193 118 66.8607C117.997 67.502 117.897 68.1033 117.702 68.6645C117.506 69.2257 117.165 69.7468 116.677 70.2278L95.9936 90.9113C95.5126 91.3923 94.9915 91.7531 94.4303 91.9936C93.8692 92.2341 93.2679 92.3543 92.6265 92.3543C91.3438 92.3543 90.2215 91.8926 89.2595 90.969C88.2974 90.0455 87.8164 88.8638 87.8164 87.424ZM97.4367 34.6329L106.576 25.4936L97.4367 16.5949V34.6329ZM97.4367 75.7594L106.576 66.8607L97.4367 57.7215V75.7594Z" fill="url(#paint1_linear_116_4)"/>
<defs>
<linearGradient id="paint0_linear_116_4" x1="90" y1="111" x2="90" y2="183" gradientUnits="userSpaceOnUse">
<stop stop-color="#2B3AA6"/>
<stop offset="1" stop-color="#343DD4"/>
</linearGradient>
<linearGradient id="paint1_linear_116_4" x1="89.5" y1="0" x2="89.5" y2="92.3543" gradientUnits="userSpaceOnUse">
<stop stop-color="#2B3AA7"/>
<stop offset="1" stop-color="#343DD4"/>
</linearGradient>
</defs>
</svg>
