<svg width="198" height="172" viewBox="0 0 198 172" fill="none" xmlns="http://www.w3.org/2000/svg">
<path d="M26.4004 0H92.4004V13.2H26.4004V0ZM105.6 99C105.6 93.7487 107.686 88.7125 111.4 84.9993C115.113 81.2861 120.149 79.2 125.4 79.2C130.652 79.2 135.688 81.2861 139.401 84.9993C143.114 88.7125 145.2 93.7487 145.2 99C145.2 104.251 143.114 109.288 139.401 113.001C135.688 116.714 130.652 118.8 125.4 118.8C120.149 118.8 115.113 116.714 111.4 113.001C107.686 109.288 105.6 104.251 105.6 99Z" fill="url(#paint0_linear_116_2)"/>
<path fill-rule="evenodd" clip-rule="evenodd" d="M0 151.8C0 157.051 2.08607 162.088 5.79929 165.801C9.51251 169.514 14.5487 171.6 19.8 171.6H178.2C183.451 171.6 188.487 169.514 192.201 165.801C195.914 162.088 198 157.051 198 151.8V46.2001C198 40.9489 195.914 35.9127 192.201 32.1994C188.487 28.4862 183.451 26.4001 178.2 26.4001H19.8C14.5487 26.4001 9.51251 28.4862 5.79929 32.1994C2.08607 35.9127 0 40.9489 0 46.2001L0 151.8ZM125.4 66.0001C116.648 66.0001 108.254 69.4769 102.065 75.6656C95.8768 81.8543 92.4 90.248 92.4 99.0001C92.4 107.752 95.8768 116.146 102.065 122.335C108.254 128.523 116.648 132 125.4 132C134.152 132 142.546 128.523 148.735 122.335C154.923 116.146 158.4 107.752 158.4 99.0001C158.4 90.248 154.923 81.8543 148.735 75.6656C142.546 69.4769 134.152 66.0001 125.4 66.0001Z" fill="url(#paint1_linear_116_2)"/>
<defs>
<linearGradient id="paint0_linear_116_2" x1="85.8004" y1="0" x2="85.8004" y2="118.8" gradientUnits="userSpaceOnUse">
<stop stop-color="#2B3AA6"/>
<stop offset="1" stop-color="#343DD4"/>
</linearGradient>
<linearGradient id="paint1_linear_116_2" x1="99" y1="26.4001" x2="99" y2="171.6" gradientUnits="userSpaceOnUse">
<stop stop-color="#2B3AA6"/>
<stop offset="1" stop-color="#343DD4"/>
</linearGradient>
</defs>
</svg>
