<svg width="977" height="1503" viewBox="0 0 977 1503" fill="none" xmlns="http://www.w3.org/2000/svg">
<path d="M955.972 693.891C931.491 658.77 892.309 636.585 860.74 607.795C831.632 581.261 802.992 539.259 818.044 499.623C831.28 464.667 874.328 448.593 898.81 421.619C947.246 368.277 946.66 282.07 889.907 234.288C862.79 211.442 826.185 198.781 789.814 199.277C745.244 199.882 711.333 225.37 671.096 239.297C651.242 246.178 628.517 249.536 608.194 242.435C588.398 235.554 576.684 218.874 568.602 201.423C560.929 184.909 555.541 167.568 547.166 151.329C539.318 136.19 529.771 121.823 518.877 108.446C475.068 54.5529 408.535 17.2298 337.784 4.56851C265.686 -8.31293 191.539 6.21998 131.448 45.9653C71.474 85.6005 26.7863 145.329 8.45447 212.103C-10.4045 280.749 2.71478 352.973 43.5369 412.481C83.1291 470.062 145.621 514.377 216.372 531.992C234.06 536.396 252.157 539.038 270.43 539.919C289.172 540.8 307.973 539.644 326.597 542.011C345.222 544.323 364.667 550.599 374.975 566.453C385.751 583.078 382.882 604.381 373.218 620.786C352.602 655.742 303.346 667.302 267.912 684.312C234.294 700.387 202.198 720.204 175.433 745.362C150.014 769.198 129.222 798.814 122.663 832.449C115.869 867.295 125.181 902.086 144.45 932.088C187.791 999.412 265.101 1037.73 314.708 1100.15C335.383 1126.19 350.025 1155.97 351.313 1188.18C322.439 1168.74 280.738 1170.72 254.558 1194.34C227.851 1218.4 220.296 1258.14 241.029 1287.81C259.712 1314.62 293.858 1326.35 324.313 1337.25C357.17 1348.97 394.42 1360.75 416.266 1388.28C440.806 1419.16 440.747 1464.85 418.14 1496.61C418.023 1496.89 417.847 1497.11 417.73 1497.39C417.378 1497.94 416.968 1498.43 416.5 1498.93C415.504 1499.97 414.333 1500.91 413.161 1501.79C412.634 1502.23 412.049 1502.61 411.463 1503C421.01 1500.74 430.439 1497.99 439.693 1495.07C456.092 1489.95 472.843 1486.32 488.715 1479.71C503.767 1473.44 520.576 1464.58 530.474 1451.86C540.547 1438.92 546.111 1422.24 547.341 1406.33C547.927 1398.9 547.517 1391.42 545.643 1384.15C543.827 1377.16 540.782 1370.72 536.389 1364.88C530.298 1356.73 520.224 1350.46 516.944 1340.72C509.916 1319.8 537.56 1306.26 554.37 1300.7C584.122 1290.9 627.17 1275.59 621.255 1238.16C615.573 1202.1 573.346 1187.4 543.476 1172.87C527.428 1165.11 509.858 1155.15 501.248 1139.57C493.576 1125.75 494.396 1109.07 505.816 1097.29C530.474 1071.86 571.881 1071.58 605.265 1074.06C641.226 1076.76 681.638 1080.66 712.445 1059.2C741.027 1039.27 753.092 999.743 734.936 969.906C724.452 952.731 709.517 940.125 712.387 918.601C714.73 900.985 726.619 885.241 741.378 874.617C778.042 848.193 830.461 853.092 873.567 845.716C908.708 839.716 945.84 825.568 965.168 795.621C986.076 763.198 976.94 724.058 955.914 693.891H955.972Z" fill="url(#paint0_linear_25_49)" fill-opacity="0.5"/>
<defs>
<linearGradient id="paint0_linear_25_49" x1="488.5" y1="0" x2="488.5" y2="1503" gradientUnits="userSpaceOnUse">
<stop stop-color="#360568"/>
<stop offset="1" stop-color="#6B0ACE"/>
</linearGradient>
</defs>
</svg>
