<svg width="235" height="248" viewBox="0 0 235 248" fill="none" xmlns="http://www.w3.org/2000/svg">
<path d="M234.881 182.971L74.78 244.739L67.1047 247.701L30.7011 159.243L25.2579 146.069V146.041L18.893 130.538L19.1234 130.452L21.773 129.402L26.6547 127.46L32.314 125.202L49.5653 118.328H49.5941L63.6199 112.763L80.8857 105.889H80.9145L99.5339 98.4822L116.843 91.608L133.662 84.9208L150.957 78.0178L168.439 71.0717L185.748 64.1975L188.729 63.0039L234.881 182.971Z" fill="url(#paint0_linear_76_73)"/>
<path d="M185.748 64.1975L172.456 103.429L155.219 110.232L168.424 71.0717L185.748 64.1975Z" fill="#FFEAE8"/>
<path d="M150.942 78.0178L137.766 117.106L120.472 123.922L133.662 84.9064L150.942 78.0178Z" fill="#FFEAE8"/>
<path d="M116.843 91.6079L103.681 130.495L86.4153 137.311L99.5339 98.4821L116.843 91.6079Z" fill="#FFEAE8"/>
<path d="M80.9001 105.888L67.8248 144.646L50.5446 151.434L63.6343 112.748L80.9001 105.888Z" fill="#FFEAE8"/>
<path d="M49.5653 118.328L37.5556 154.037L36.5908 156.927L30.7011 159.243L25.2579 146.069V146.041L29.3475 134.004L32.314 125.202L49.5653 118.328Z" fill="#FFEAE8"/>
<path d="M172.629 29.2369L165.789 33.7813L153.275 42.0792L137.824 52.3474L121.177 63.3777L105.726 73.6603L90.6922 83.6408L75.2408 93.9089L59.6023 104.292L44.1509 114.531L37.93 118.673L33.5524 121.564L26.2371 126.439L21.773 129.402L19.4546 130.94L19.1234 130.451L0 101.718L9.0865 95.6922L15.4514 91.4497L31.0755 81.0666L46.5269 70.8272L61.5751 60.8323L77.0265 50.5641L93.6587 39.505L109.139 29.2656L121.638 20.9246L137.104 10.6708L153.16 0L165.832 19.0263L172.629 29.2369Z" fill="url(#paint1_linear_76_73)"/>
<path d="M59.6023 104.292L44.1509 114.532L15.149 106.119L0 101.718L9.0865 95.6924L15.4514 91.45L59.6023 104.292Z" fill="#FFEAE8"/>
<path d="M90.6922 83.641L75.2265 93.9235L31.0756 81.0668L46.5413 70.8274L90.6922 83.641Z" fill="#FFEAE8"/>
<path d="M121.177 63.3778L105.726 73.6459L61.5751 60.8323L77.0265 50.5498L121.177 63.3778Z" fill="#FFEAE8"/>
<path d="M153.275 42.0795L137.824 52.3476L93.6731 39.5052L109.124 29.2515L153.275 42.0795Z" fill="#FFEAE8"/>
<path d="M172.629 29.237L165.789 33.7671L121.638 20.9247L137.104 10.6853L165.832 19.012L172.629 29.237Z" fill="#FFEAE8"/>
<defs>
<linearGradient id="paint0_linear_76_73" x1="126.887" y1="63.0039" x2="126.887" y2="247.701" gradientUnits="userSpaceOnUse">
<stop stop-color="#2B3AA6"/>
<stop offset="1" stop-color="#343DD4"/>
</linearGradient>
<linearGradient id="paint1_linear_76_73" x1="86.3146" y1="0" x2="86.3146" y2="130.94" gradientUnits="userSpaceOnUse">
<stop stop-color="#343DD4"/>
<stop offset="1" stop-color="#1C3AA6"/>
</linearGradient>
</defs>
</svg>
