<svg width="193" height="145" viewBox="0 0 193 145" fill="none" xmlns="http://www.w3.org/2000/svg">
<path fill-rule="evenodd" clip-rule="evenodd" d="M83.6325 10.9617L78.7885 7.53015C71.8759 2.62963 63.6157 -0.00139635 55.1473 5.55965e-07H49.2419C45.3338 5.55965e-07 41.3969 0.24166 37.7204 1.54663C14.7258 9.72443 -1.0896 39.584 0.058681 107.326C0.290267 120.975 3.47458 136.055 15.768 141.942C19.9615 143.962 24.5566 145.006 29.2096 144.996C34.4396 145.082 39.5775 143.612 43.9733 140.772C47.9295 138.182 51.4033 134.818 54.8771 131.454C59.1615 127.297 63.4458 123.141 68.6179 120.453C74.2522 117.524 80.5074 115.995 86.8554 115.997H106.145C112.494 115.997 118.747 117.524 124.382 120.444C129.554 123.141 133.839 127.297 138.133 131.454C141.606 134.818 145.08 138.182 149.017 140.772C152.78 143.247 157.653 144.996 163.79 144.996C168.443 145.006 173.038 143.962 177.232 141.942C189.525 136.055 192.71 120.966 192.941 107.326C194.09 39.584 178.274 9.72443 155.28 1.55629C151.593 0.241659 147.637 5.55965e-07 143.748 5.55965e-07H137.843C129.374 0.00142982 121.113 2.63587 114.202 7.53982L109.358 10.9617C105.596 13.6248 101.102 15.0546 96.4952 15.0546C91.8884 15.0546 87.3948 13.6248 83.6325 10.9617ZM142.33 38.6657C144.249 38.6657 146.09 39.4295 147.447 40.7891C148.805 42.1488 149.567 43.9928 149.567 45.9155C149.567 47.8383 148.805 49.6823 147.447 51.0419C146.09 52.4015 144.249 53.1654 142.33 53.1654C140.411 53.1654 138.57 52.4015 137.213 51.0419C135.855 49.6823 135.093 47.8383 135.093 45.9155C135.093 43.9928 135.855 42.1488 137.213 40.7891C138.57 39.4295 140.411 38.6657 142.33 38.6657ZM53.0727 41.0823C54.9921 41.0823 56.8329 41.8461 58.1901 43.2058C59.5473 44.5654 60.3098 46.4094 60.3098 48.3321V55.582H67.5469C69.4662 55.582 71.307 56.3458 72.6642 57.7054C74.0215 59.065 74.7839 60.909 74.7839 62.8318C74.7839 64.7546 74.0215 66.5986 72.6642 67.9582C71.307 69.3178 69.4662 70.0816 67.5469 70.0816H60.3098V77.3314C60.3098 79.2542 59.5473 81.0982 58.1901 82.4578C56.8329 83.8174 54.9921 84.5813 53.0727 84.5813C51.1533 84.5813 49.3125 83.8174 47.9553 82.4578C46.5981 81.0982 45.8356 79.2542 45.8356 77.3314V70.0816H38.5985C36.6791 70.0816 34.8384 69.3178 33.4812 67.9582C32.1239 66.5986 31.3615 64.7546 31.3615 62.8318C31.3615 60.909 32.1239 59.065 33.4812 57.7054C34.8384 56.3458 36.6791 55.582 38.5985 55.582H45.8356V48.3321C45.8356 46.4094 46.5981 44.5654 47.9553 43.2058C49.3125 41.8461 51.1533 41.0823 53.0727 41.0823ZM164.041 60.4152C164.041 62.338 163.279 64.182 161.922 65.5416C160.564 66.9012 158.724 67.665 156.804 67.665C154.885 67.665 153.044 66.9012 151.687 65.5416C150.33 64.182 149.567 62.338 149.567 60.4152C149.567 58.4924 150.33 56.6484 151.687 55.2888C153.044 53.9292 154.885 53.1654 156.804 53.1654C158.724 53.1654 160.564 53.9292 161.922 55.2888C163.279 56.6484 164.041 58.4924 164.041 60.4152ZM127.856 67.665C129.775 67.665 131.616 66.9012 132.973 65.5416C134.33 64.182 135.093 62.338 135.093 60.4152C135.093 58.4924 134.33 56.6484 132.973 55.2888C131.616 53.9292 129.775 53.1654 127.856 53.1654C125.936 53.1654 124.096 53.9292 122.738 55.2888C121.381 56.6484 120.619 58.4924 120.619 60.4152C120.619 62.338 121.381 64.182 122.738 65.5416C124.096 66.9012 125.936 67.665 127.856 67.665ZM149.567 74.9148C149.567 72.9921 148.805 71.148 147.447 69.7884C146.09 68.4288 144.249 67.665 142.33 67.665C140.411 67.665 138.57 68.4288 137.213 69.7884C135.855 71.148 135.093 72.9921 135.093 74.9148C135.093 76.8376 135.855 78.6816 137.213 80.0412C138.57 81.4008 140.411 82.1646 142.33 82.1646C144.249 82.1646 146.09 81.4008 147.447 80.0412C148.805 78.6816 149.567 76.8376 149.567 74.9148Z" fill="url(#paint0_linear_49_180)"/>
<defs>
<linearGradient id="paint0_linear_49_180" x1="96.5" y1="0" x2="96.5" y2="145" gradientUnits="userSpaceOnUse">
<stop stop-color="#2B3AA6"/>
<stop offset="1" stop-color="#343DD4"/>
</linearGradient>
</defs>
</svg>
