<svg width="199" height="188" viewBox="0 0 199 188" fill="none" xmlns="http://www.w3.org/2000/svg">
<path d="M199 0V130.556C199 140.251 195.138 149.549 188.263 156.404C181.388 163.26 172.064 167.111 162.342 167.111C152.62 167.111 143.296 163.26 136.421 156.404C129.546 149.549 125.684 140.251 125.684 130.556C125.684 120.86 129.546 111.562 136.421 104.707C143.296 97.8514 152.62 94 162.342 94C167.998 94 173.339 95.2533 178.053 97.5511V36.2422L73.3158 58.4889V151.444C73.3158 161.14 69.4536 170.438 62.5789 177.293C55.7043 184.149 46.3802 188 36.6579 188C26.9356 188 17.6115 184.149 10.7368 177.293C3.86216 170.438 0 161.14 0 151.444C0 141.749 3.86216 132.451 10.7368 125.596C17.6115 118.74 26.9356 114.889 36.6579 114.889C42.3137 114.889 47.6553 116.142 52.3684 118.44V31.3333L199 0Z" fill="url(#paint0_linear_76_71)"/>
<defs>
<linearGradient id="paint0_linear_76_71" x1="99.5" y1="0" x2="99.5" y2="188" gradientUnits="userSpaceOnUse">
<stop stop-color="#2B3AA6"/>
<stop offset="1" stop-color="#343DD4"/>
</linearGradient>
</defs>
</svg>
