<svg width="210" height="159" viewBox="0 0 210 159" fill="none" xmlns="http://www.w3.org/2000/svg">
<path d="M184.898 87.7234L159.546 79.2758C158.776 79.008 157.939 79.008 157.17 79.2758L118.112 93.4785C117.323 93.7761 116.489 93.935 115.646 93.9484C114.063 93.9476 112.525 93.4274 111.266 92.4677C110.008 91.508 109.099 90.1619 108.68 88.6359C108.224 86.8462 108.455 84.9506 109.328 83.3231C110.201 81.6957 111.653 80.4546 113.396 79.845L130.101 73.7736C130.55 73.6119 130.938 73.3143 131.209 72.9222C131.481 72.5301 131.624 72.063 131.618 71.586C131.612 71.1089 131.458 70.6455 131.176 70.2604C130.895 69.8752 130.5 69.5874 130.047 69.4369C127.085 68.4492 124.373 66.8309 122.097 64.6936C121.61 64.2148 120.998 63.8835 120.332 63.738C119.665 63.5925 118.971 63.6388 118.329 63.8714L96.4467 71.8221C95.5095 72.1622 94.5121 72.3047 93.5172 72.2407C92.5222 72.1766 91.5513 71.9075 90.6655 71.4501C89.7796 70.9928 88.9979 70.3571 88.3696 69.583C87.7412 68.809 87.2798 67.9133 87.0143 66.9523C86.5582 65.1627 86.7895 63.267 87.6626 61.6396C88.5357 60.0121 89.9872 58.7711 91.7305 58.1614L110.225 51.4215C110.687 51.2535 111.111 50.9929 111.469 50.6554C111.828 50.318 112.113 49.911 112.309 49.4592C112.504 49.0075 112.605 48.5206 112.606 48.0284C112.606 47.5362 112.506 47.049 112.312 46.5969L109.547 40.1279C109.184 39.2768 108.509 38.5971 107.66 38.229C106.812 37.8609 105.854 37.8324 104.985 38.1493L81.9458 46.5246C81.0086 46.8647 80.0112 47.0072 79.0163 46.9432C78.0214 46.8792 77.0504 46.61 76.1646 46.1526C75.2787 45.6953 74.497 45.0596 73.8687 44.2855C73.2403 43.5115 72.7789 42.6158 72.5135 41.6548C72.0573 39.8652 72.2886 37.9695 73.1617 36.3421C74.0348 34.7146 75.4863 33.4736 77.2296 32.8639L98.9132 24.9766C99.3747 24.8085 99.7972 24.5482 100.155 24.2114C100.512 23.8746 100.797 23.4685 100.993 23.0178C101.188 22.5671 101.289 22.0813 101.291 21.5902C101.292 21.099 101.193 20.6127 101 20.161L96.1214 8.65967V8.56933C94.6282 5.22004 91.9179 2.56344 88.5393 1.13755C85.1608 -0.288334 81.3667 -0.376921 77.9253 0.889731L9.51366 25.7264C6.72851 26.7466 4.32317 28.5962 2.62201 31.026C0.920854 33.4557 0.00571288 36.3487 0 39.3148V144.543C0 148.377 1.52301 152.054 4.23398 154.765C6.94495 157.476 10.6218 158.999 14.4557 158.999H195.152C198.986 158.999 202.663 157.476 205.374 154.765C208.085 152.054 209.608 148.377 209.608 144.543V122.011C209.608 114.425 207.222 107.032 202.787 100.878C198.352 94.7245 192.094 90.1222 184.898 87.7234ZM195.152 144.543H14.4557V130.088H195.152V144.543Z" fill="url(#paint0_linear_49_589)"/>
<defs>
<linearGradient id="paint0_linear_49_589" x1="104.804" y1="0" x2="104.804" y2="158.999" gradientUnits="userSpaceOnUse">
<stop stop-color="#2B3AA6"/>
<stop offset="1" stop-color="#343DD4"/>
</linearGradient>
</defs>
</svg>
