<svg width="191" height="199" viewBox="0 0 191 199" fill="none" xmlns="http://www.w3.org/2000/svg">
<path d="M177.873 75.8027C177.272 75.5759 176.732 75.2096 176.3 74.734C175.868 74.2583 175.554 73.6868 175.386 73.0665C173.592 66.4233 170.944 60.0408 167.509 54.0785C167.223 53.498 167.075 52.8598 167.075 52.2129C167.075 51.566 167.223 50.9278 167.509 50.3473C169.136 46.554 169.589 42.36 168.809 38.3068C168.029 34.2535 166.052 30.5271 163.134 27.6084C160.215 24.6897 156.489 22.7129 152.435 21.9331C148.382 21.1533 144.188 21.6062 140.395 23.2335C139.814 23.5189 139.176 23.6673 138.529 23.6673C137.882 23.6673 137.244 23.5189 136.664 23.2335C130.701 19.7982 124.319 17.1504 117.676 15.3564C117.055 15.1879 116.484 14.8745 116.008 14.442C115.532 14.0096 115.166 13.4705 114.939 12.8689C113.367 9.06066 110.699 5.80481 107.275 3.51387C103.85 1.22293 99.8229 0 95.7027 0C91.5825 0 87.5551 1.22293 84.1305 3.51387C80.706 5.80481 78.0385 9.06066 76.466 12.8689C76.2393 13.4705 75.873 14.0096 75.3973 14.442C74.9216 14.8745 74.3501 15.1879 73.7298 15.3564C67.0663 17.2813 60.6829 20.0688 54.7419 23.6481C54.1614 23.9335 53.5231 24.0819 52.8762 24.0819C52.2294 24.0819 51.5911 23.9335 51.0106 23.6481C47.2492 22.0127 43.0859 21.5347 39.0517 22.2751C35.0175 23.0155 31.2952 24.9406 28.3596 27.8051C25.424 30.6695 23.4081 34.3434 22.5689 38.3583C21.7298 42.3731 22.1055 46.5468 23.6481 50.3473C23.9335 50.9278 24.0819 51.566 24.0819 52.2129C24.0819 52.8598 23.9335 53.498 23.6481 54.0785C20.0688 60.0196 17.2813 66.4029 15.3564 73.0665C15.1879 73.6868 14.8745 74.2583 14.442 74.734C14.0096 75.2096 13.4705 75.5759 12.8689 75.8027C9.06066 77.3752 5.80481 80.0427 3.51387 83.4672C1.22293 86.8917 0 90.9192 0 95.0394C0 99.1595 1.22293 103.187 3.51387 106.612C5.80481 110.036 9.06066 112.704 12.8689 114.276C13.4586 114.508 13.9844 114.877 14.4026 115.353C14.8209 115.829 15.1194 116.398 15.2735 117.012C19.2296 131.468 27.0562 144.57 37.9098 154.905C38.6806 155.682 39.5977 156.299 40.6081 156.72C41.6185 157.141 42.7023 157.358 43.7969 157.358C44.8915 157.358 45.9752 157.141 46.9856 156.72C47.9961 156.299 48.9131 155.682 49.6839 154.905C51.2283 153.352 52.0951 151.25 52.0951 149.06C52.0951 146.869 51.2283 144.768 49.6839 143.214C41.7371 135.631 35.7846 126.204 32.3544 115.769C32.1141 114.954 32.1197 114.087 32.3705 113.275C32.6213 112.464 33.106 111.745 33.7639 111.208C36.1987 109.275 38.1654 106.817 39.5172 104.017C40.8691 101.217 41.5712 98.1483 41.5712 95.0394C41.5712 91.9304 40.8691 88.8615 39.5172 86.0619C38.1654 83.2622 36.1987 80.8039 33.7639 78.8706C33.1022 78.3379 32.6201 77.6149 32.3829 76.7992C32.1456 75.9836 32.1646 75.1147 32.4373 74.3102C33.5022 71.1607 34.7765 68.086 36.2514 65.1064C36.6424 64.3641 37.2454 63.7548 37.9837 63.3562C38.7219 62.9575 39.5621 62.7875 40.3973 62.8677C43.4826 63.1939 46.6018 62.8262 49.5267 61.7915C52.4516 60.7567 55.1081 59.0812 57.3019 56.8873C59.4957 54.6935 61.1713 52.037 62.206 49.1121C63.2408 46.1872 63.6085 43.068 63.2823 39.9827C63.213 39.149 63.3878 38.3131 63.7853 37.5769C64.1828 36.8408 64.7859 36.2362 65.521 35.8369C68.5006 34.3619 71.5753 33.0876 74.7248 32.0227C75.5293 31.75 76.3981 31.731 77.2138 31.9683C78.0294 32.2056 78.7525 32.6877 79.2852 33.3494C81.2185 35.7841 83.6768 37.7508 86.4764 39.1026C89.2761 40.4545 92.345 41.1566 95.4539 41.1566C98.5629 41.1566 101.632 40.4545 104.431 39.1026C107.231 37.7508 109.689 35.7841 111.623 33.3494C112.155 32.6877 112.878 32.2056 113.694 31.9683C114.51 31.731 115.379 31.75 116.183 32.0227C119.333 33.0876 122.407 34.3619 125.387 35.8369C126.129 36.2279 126.738 36.8308 127.137 37.5691C127.536 38.3074 127.706 39.1475 127.626 39.9827C127.299 43.068 127.667 46.1872 128.702 49.1121C129.737 52.037 131.412 54.6935 133.606 56.8873C135.8 59.0812 138.456 60.7567 141.381 61.7915C144.306 62.8262 147.425 63.1939 150.511 62.8677C151.346 62.7875 152.186 62.9575 152.924 63.3562C153.662 63.7548 154.265 64.3641 154.656 65.1064C156.131 68.086 157.406 71.1607 158.471 74.3102C158.743 75.1147 158.762 75.9836 158.525 76.7992C158.288 77.6149 157.806 78.3379 157.144 78.8706C154.709 80.8039 152.743 83.2622 151.391 86.0619C150.039 88.8615 149.337 91.9304 149.337 95.0394C149.337 98.1483 150.039 101.217 151.391 104.017C152.743 106.817 154.709 109.275 157.144 111.208C157.82 111.73 158.319 112.449 158.571 113.265C158.823 114.081 158.817 114.956 158.554 115.769C155.107 126.085 149.219 135.415 141.39 142.965C140.51 143.691 139.789 144.591 139.273 145.608C138.757 146.625 138.456 147.738 138.39 148.877C138.323 150.016 138.492 151.156 138.886 152.226C139.281 153.297 139.891 154.274 140.681 155.098C141.47 155.921 142.421 156.573 143.473 157.013C144.526 157.452 145.658 157.669 146.798 157.651C147.939 157.633 149.064 157.38 150.102 156.908C151.14 156.435 152.07 155.753 152.832 154.905C163.686 144.57 171.512 131.468 175.469 117.012C175.635 116.393 175.937 115.819 176.353 115.331C176.769 114.844 177.288 114.455 177.873 114.193C181.688 112.638 184.953 109.981 187.251 106.562C189.549 103.144 190.777 99.1174 190.777 94.9979C190.777 90.8784 189.549 86.8522 187.251 83.4334C184.953 80.0145 181.688 77.3579 177.873 75.8027Z" fill="url(#paint0_linear_116_3)"/>
<path d="M170.08 182.102H145.205C144.384 182.109 143.58 181.867 142.899 181.408C142.219 180.949 141.693 180.295 141.391 179.531L110.712 106.648C110.572 106.285 110.537 105.891 110.61 105.51C110.684 105.129 110.862 104.776 111.126 104.492C113.727 101.488 115.41 97.8001 115.974 93.8672C116.539 89.9343 115.961 85.922 114.309 82.3082C112.658 78.6944 110.003 75.6312 106.661 73.4835C103.318 71.3357 99.4284 70.1938 95.4552 70.1938C91.482 70.1938 87.5925 71.3357 84.2499 73.4835C80.9072 75.6312 78.2522 78.6944 76.601 82.3082C74.9498 85.922 74.3719 89.9343 74.9362 93.8672C75.5005 97.8001 77.1832 101.488 79.784 104.492C80.048 104.776 80.2268 105.129 80.3001 105.51C80.3734 105.891 80.3382 106.285 80.1986 106.648L49.5194 179.531C49.2178 180.295 48.6919 180.949 48.0111 181.408C47.3302 181.867 46.5263 182.109 45.7052 182.102H20.8302C18.6312 182.102 16.5221 182.975 14.9671 184.53C13.4122 186.085 12.5386 188.194 12.5386 190.393C12.5386 192.592 13.4122 194.702 14.9671 196.257C16.5221 197.812 18.6312 198.685 20.8302 198.685H170.08C172.279 198.685 174.388 197.812 175.943 196.257C177.498 194.702 178.372 192.592 178.372 190.393C178.372 188.194 177.498 186.085 175.943 184.53C174.388 182.975 172.279 182.102 170.08 182.102ZM123.066 181.19C122.869 181.469 122.609 181.697 122.306 181.856C122.003 182.014 121.667 182.099 121.325 182.102H69.5852C69.2435 182.099 68.9074 182.014 68.6046 181.856C68.3019 181.697 68.0411 181.469 67.844 181.19C67.707 180.876 67.6363 180.537 67.6363 180.195C67.6363 179.852 67.707 179.513 67.844 179.2L94.709 115.188C94.7864 115.01 94.9139 114.859 95.0759 114.753C95.2379 114.647 95.4274 114.591 95.6211 114.591C95.8147 114.591 96.0042 114.647 96.1662 114.753C96.3282 114.859 96.4557 115.01 96.5331 115.188L123.398 179.2C123.485 179.536 123.5 179.887 123.443 180.23C123.386 180.573 123.258 180.9 123.066 181.19Z" fill="url(#paint1_linear_116_3)"/>
<defs>
<linearGradient id="paint0_linear_116_3" x1="95.3883" y1="0" x2="95.3883" y2="157.652" gradientUnits="userSpaceOnUse">
<stop stop-color="#2B3AA6"/>
<stop offset="1" stop-color="#343DD4"/>
</linearGradient>
<linearGradient id="paint1_linear_116_3" x1="95.4552" y1="70.1938" x2="95.4552" y2="198.685" gradientUnits="userSpaceOnUse">
<stop stop-color="#2B3AA6"/>
<stop offset="1" stop-color="#343DD4"/>
</linearGradient>
</defs>
</svg>
