<svg width="2207" height="604" viewBox="0 0 2207 604" fill="none" xmlns="http://www.w3.org/2000/svg">
<path d="M27.4087 257.917L21.2848 254.001L16.1495 250.061L11.874 245.188L8.27079 240.77L13.9362 240.677L20.2209 238.502L26.8161 238.481L30.9572 242.872L35.0513 246.997L37.6793 241.781L41.2086 236.573L47.7838 236.824L53.8643 235.613L59.3921 235.983L57.0667 241.305L53.3527 246.463L48.4829 250.804L45.5323 256.184L48.7808 261.152L53.8689 264.578L57.9938 269.037L62.0579 273.57L66.5084 276.672L61.0019 277.516L54.8649 279.092L48.5474 278.705L45.4372 274.017L40.6804 271.011L36.8156 266.932L33.1171 271.278L30.8302 276.53L26.8389 280.385L20.6478 280.639L14.3862 281.349L7.94017 282.504L11.2033 277.095L15.9212 273.061L18.4147 267.363L21.9157 262.337L27.3661 257.943L27.4087 257.917Z" fill="#0270E3"/>
<path d="M432.846 244.383L427.494 242.985L421.539 243.847L415.943 242.246L411.482 239.032L413.715 232.705L416.498 226.485L421.245 229.38L426.476 230.925L432.68 231.548L430.55 224.789L430.457 218.136L423.446 217.07L417.6 212.746L413.06 207.694L409.841 201.328L411.09 195.564L413.416 190.489L417.088 186.348L421.3 181.955L427.144 181.103L426.093 172.85L435.044 171.757L434.321 180.803L442.405 181.051L449.8 183.117L446.821 189.175L444.482 194.836L436.385 193.217L436.906 198.886L438.101 204.29L442.912 206.661L448.71 207.771L453.468 211.273L456.515 216.259L458.024 221.904L457.86 227.951L455.721 233.594L451.243 237.539L447.123 242.441L440.699 243.347L440.995 252.209L433.636 253.718L432.789 244.501L432.846 244.383ZM429.138 203.538L429.917 198.538L427.803 194.163L425.005 199.237L429.138 203.538ZM438.894 219.049L438.16 224.787L440.341 229.899L443.794 223.865L438.894 219.049Z" fill="#0270E3"/>
<path d="M148.671 238.717L145.809 232.071L143.465 226.412L143.133 219.128L147.431 213.219L153.487 209.782L159.45 206.061L166.45 205.057L172.782 205.353L179.298 205.205L184.794 208.661L189.266 212.976L192.413 218.313L194.341 224.595L188.854 226.135L183.109 225.853L177.498 228.259L174.466 221.718L168.336 218.23L163.216 222.054L161.15 227.263L164.161 236.011L171.747 236.484L178.606 235.651L180.264 242.678L173.557 242.214L167.186 242.957L168.758 245.851L166.659 252.908L173.148 253.933L180.154 255.202L185.442 252.96L187.185 247.421L193.318 250.459L199.633 252.534L196.65 257.557L193.973 262.732L189.328 266.332L183.438 267.661L177.245 268.387L171.166 266.921L164.983 266.521L158.873 264.967L153.326 270.023L147.566 268.346L142.277 265.434L144.95 260.215L148.902 255.44L155.095 253.498L154.093 249.697L153.383 244.181L146.811 246.653L140.819 245.403L139.981 239.223L148.697 238.76L148.671 238.717Z" fill="#0270E3"/>
<path d="M279.233 226.877L285.211 227.003L291.189 224.428L297.419 224.599L303.626 224.523L309.857 224.694L315.951 223.143L322.503 222.159L322.713 228.126L322.781 233.274L316.862 233.3L310.857 235.585L304.627 235.414L298.43 235.601L292.239 235.855L286.106 236.981L279.323 238.392L279.041 232.139L279.215 226.924L279.233 226.877ZM292.442 213.555L294.463 208.846L298.72 204.696L304.471 207.004L306.731 212.242L304.663 217.181L300.155 220.319L294.18 219.247L292.442 213.555ZM295.583 247.746L297.58 243.016L301.86 238.865L307.631 241.147L309.871 246.411L307.803 251.349L303.295 254.487L297.32 253.415L295.581 247.724L295.583 247.746Z" fill="#0270E3"/>
<path d="M16.3267 355.012L23.4272 354.855L22.5578 352.009L22.9323 348.734L16.8561 350.237L18.3941 342.962L23.4927 342.336L24.8836 336.154L27.5375 330.486L32.174 326.301L36.7985 322.23L42.0975 318.885L48.241 317.623L54.4197 317.235L61.6897 315.982L68.3761 317.934L68.4295 325.131L66.0162 331.947L65.6232 332.815L61.1832 330.072L56.2215 331.699L50.0369 332.267L43.8456 334.479L41.0582 340.654L47.1807 340.879L53.1295 339.95L59.0271 338.463L65.1124 338.039L63.5163 346.152L57.5932 346.382L51.6758 346.183L45.8263 346.968L40.1993 349.195L39.591 349.926L40.4165 351.313L47.8754 352.361L55.245 351.211L62.9069 350.057L60.1917 357.508L54.8601 358.538L48.7526 359.212L42.3645 359.281L46.3698 363.91L51.1775 366.979L56.8115 365.809L62.3236 364.537L67.3005 361.851L68.5572 362.051L70.3439 368.999L72.577 375.658L65.6817 378.295L58.244 380.418L51.3911 380.575L44.5697 379.604L37.7616 377.799L32.593 373.008L28.2968 367.664L24.9305 362.639L19.8397 362.859L14.9653 362.249L16.3511 355.033L16.3267 355.012Z" fill="#0270E3"/>
<path d="M167.741 346.636L161.618 342.72L156.482 338.78L152.207 333.907L148.604 329.489L154.269 329.396L160.554 327.221L167.149 327.2L171.29 331.591L175.384 335.716L178.012 330.5L181.541 325.292L188.117 325.543L194.197 324.332L199.725 324.702L197.399 330.024L193.685 335.182L188.816 339.523L185.865 344.903L189.114 349.871L194.202 353.297L198.327 357.756L202.391 362.289L206.841 365.391L201.335 366.235L195.198 367.811L188.88 367.424L185.77 362.736L181.013 359.73L177.148 355.651L173.45 359.997L171.163 365.249L167.172 369.104L160.981 369.358L154.719 370.068L148.273 371.223L151.536 365.814L156.254 361.78L158.748 356.082L162.249 351.056L167.699 346.662L167.741 346.636Z" fill="#0270E3"/>
<path d="M572.351 324.091L566.998 322.692L561.043 323.555L555.447 321.953L550.987 318.74L553.22 312.413L556.003 306.193L560.75 309.088L565.98 310.633L572.184 311.256L570.055 304.497L569.961 297.844L562.951 296.777L557.105 292.453L552.565 287.401L549.346 281.035L550.595 275.272L552.921 270.197L556.593 266.056L560.805 261.663L566.648 260.811L565.597 252.558L574.548 251.465L573.826 260.511L581.909 260.759L589.304 262.825L586.326 268.883L583.987 274.544L575.89 272.925L576.411 278.594L577.605 283.998L582.416 286.369L588.215 287.479L592.972 290.981L596.02 295.967L597.529 301.612L597.364 307.659L595.226 313.302L590.748 317.247L586.627 322.149L580.203 323.055L580.5 331.917L573.141 333.426L572.294 324.209L572.351 324.091ZM568.642 283.246L569.421 278.246L567.308 273.871L564.51 278.944L568.642 283.246ZM578.398 298.756L577.665 304.495L579.846 309.606L583.299 303.572L578.398 298.756Z" fill="#0270E3"/>
<path d="M289.004 327.436L286.141 320.79L283.797 315.131L283.466 307.847L287.764 301.938L293.82 298.501L299.782 294.78L306.783 293.776L313.114 294.072L319.63 293.924L325.127 297.38L329.598 301.695L332.746 307.032L334.674 313.314L329.186 314.854L323.441 314.572L317.831 316.978L314.798 310.437L308.669 306.949L303.549 310.773L301.483 315.982L304.493 324.73L312.08 325.203L318.938 324.37L320.597 331.397L313.89 330.933L307.518 331.676L309.09 334.57L306.992 341.627L313.48 342.652L320.487 343.921L325.775 341.679L327.517 336.14L333.651 339.178L339.966 341.253L336.982 346.276L334.305 351.451L329.66 355.051L323.771 356.38L317.578 357.106L311.499 355.64L305.316 355.24L299.206 353.686L293.659 358.742L287.898 357.065L282.61 354.153L285.282 348.934L289.234 344.159L295.428 342.217L294.426 338.416L293.716 332.9L287.143 335.372L281.152 334.122L280.314 327.942L289.03 327.479L289.004 327.436Z" fill="#0270E3"/>
<path d="M419.566 315.596L425.544 315.722L431.522 313.147L437.752 313.318L443.959 313.242L450.189 313.413L456.284 311.862L462.835 310.878L463.046 316.845L463.114 321.993L457.194 322.019L451.19 324.304L444.96 324.133L438.763 324.32L432.572 324.574L426.438 325.7L419.656 327.111L419.374 320.858L419.548 315.643L419.566 315.596ZM432.774 302.274L434.796 297.565L439.053 293.415L444.804 295.723L447.064 300.961L444.996 305.9L440.488 309.038L434.513 307.966L432.774 302.274ZM435.916 336.465L437.913 331.735L442.192 327.584L447.964 329.866L450.203 335.13L448.135 340.068L443.628 343.206L437.653 342.134L435.914 336.443L435.916 336.465Z" fill="#0270E3"/>
<path d="M532.993 196.836L540.093 196.679L539.224 193.833L539.599 190.558L533.522 192.061L535.06 184.785L540.159 184.159L541.55 177.977L544.204 172.31L548.84 168.125L553.465 164.054L558.764 160.709L564.907 159.447L571.086 159.059L578.356 157.806L585.042 159.757L585.096 166.954L582.682 173.77L582.289 174.639L577.849 171.896L572.888 173.522L566.703 174.091L560.512 176.303L557.724 182.478L563.847 182.703L569.796 181.774L575.693 180.287L581.779 179.862L580.183 187.976L574.259 188.205L568.342 188.006L562.493 188.791L556.866 191.019L556.257 191.75L557.083 193.137L564.542 194.185L571.911 193.035L579.573 191.881L576.858 199.332L571.526 200.362L565.419 201.036L559.031 201.105L563.036 205.734L567.844 208.803L573.478 207.632L578.99 206.361L583.967 203.675L585.223 203.875L587.01 210.823L589.243 217.482L582.348 220.118L574.91 222.242L568.057 222.399L561.236 221.428L554.428 219.623L549.259 214.831L544.963 209.487L541.597 204.463L536.506 204.683L531.632 204.073L533.017 196.856L532.993 196.836Z" fill="#0270E3"/>
<path d="M684.408 188.459L678.284 184.543L673.149 180.604L668.873 175.73L665.27 171.313L670.935 171.22L677.22 169.044L683.815 169.024L687.956 173.414L692.05 177.539L694.678 172.324L698.208 167.116L704.783 167.367L710.863 166.156L716.391 166.525L714.066 171.848L710.352 177.005L705.482 181.346L702.531 186.726L705.78 191.694L710.868 195.12L714.993 199.58L719.057 204.113L723.507 207.215L718.001 208.059L711.864 209.635L705.546 209.248L702.436 204.56L697.679 201.554L693.815 197.475L690.116 201.821L687.829 207.072L683.838 210.928L677.647 211.181L671.385 211.892L664.939 213.047L668.202 207.638L672.92 203.604L675.414 197.905L678.915 192.88L684.365 188.486L684.408 188.459Z" fill="#0270E3"/>
<path d="M1089.84 174.926L1084.49 173.528L1078.54 174.39L1072.94 172.789L1068.48 169.575L1070.71 163.248L1073.5 157.028L1078.24 159.923L1083.47 161.468L1089.68 162.091L1087.55 155.332L1087.46 148.679L1080.45 147.613L1074.6 143.288L1070.06 138.237L1066.84 131.871L1068.09 126.107L1070.41 121.032L1074.09 116.891L1078.3 112.498L1084.14 111.646L1083.09 103.393L1092.04 102.3L1091.32 111.346L1099.4 111.594L1106.8 113.66L1103.82 119.718L1101.48 125.379L1093.38 123.76L1093.9 129.429L1095.1 134.833L1099.91 137.204L1105.71 138.314L1110.47 141.816L1113.51 146.802L1115.02 152.447L1114.86 158.494L1112.72 164.137L1108.24 168.082L1104.12 172.984L1097.7 173.89L1097.99 182.752L1090.64 184.261L1089.79 175.044L1089.84 174.926ZM1086.14 134.081L1086.92 129.081L1084.8 124.706L1082 129.78L1086.14 134.081ZM1095.89 149.592L1095.16 155.33L1097.34 160.441L1100.79 154.408L1095.89 149.592Z" fill="#0270E3"/>
<path d="M805.67 169.26L802.807 162.613L800.464 156.955L800.132 149.671L804.43 143.762L810.486 140.325L816.449 136.603L823.449 135.6L829.781 135.896L836.297 135.747L841.793 139.203L846.265 143.519L849.412 148.856L851.34 155.138L845.853 156.678L840.108 156.395L834.497 158.801L831.464 152.261L825.335 148.773L820.215 152.597L818.149 157.805L821.16 166.554L828.746 167.027L835.604 166.194L837.263 173.221L830.556 172.757L824.185 173.5L825.756 176.394L823.658 183.451L830.147 184.475L837.153 185.745L842.441 183.503L844.184 177.964L850.317 181.001L856.632 183.077L853.648 188.1L850.972 193.275L846.327 196.875L840.437 198.204L834.244 198.93L828.165 197.463L821.982 197.064L815.872 195.51L810.325 200.565L804.565 198.889L799.276 195.977L801.949 190.757L805.9 185.983L812.094 184.041L811.092 180.24L810.382 174.723L803.81 177.195L797.818 175.945L796.98 169.766L805.696 169.302L805.67 169.26Z" fill="#0270E3"/>
<path d="M936.232 157.42L942.21 157.546L948.188 154.971L954.418 155.142L960.626 155.066L966.856 155.237L972.95 153.686L979.502 152.702L979.712 158.669L979.78 163.817L973.861 163.843L967.856 166.128L961.626 165.957L955.429 166.144L949.238 166.398L943.105 167.524L936.322 168.935L936.04 162.682L936.214 157.467L936.232 157.42ZM949.441 144.098L951.462 139.389L955.719 135.239L961.47 137.547L963.73 142.785L961.662 147.724L957.154 150.862L951.179 149.79L949.441 144.098ZM952.582 178.289L954.579 173.559L958.859 169.408L964.63 171.69L966.87 176.954L964.802 181.892L960.294 185.03L954.319 183.958L952.58 178.267L952.582 178.289Z" fill="#0270E3"/>
<path d="M673.326 285.555L680.426 285.398L679.557 282.552L679.931 279.277L673.855 280.78L675.393 273.504L680.492 272.878L681.882 266.696L684.536 261.029L689.173 256.844L693.797 252.773L699.096 249.428L705.24 248.166L711.419 247.778L718.689 246.525L725.375 248.476L725.428 255.673L723.015 262.489L722.622 263.358L718.182 260.615L713.22 262.241L707.036 262.81L700.844 265.022L698.057 271.197L704.179 271.422L710.128 270.493L716.026 269.006L722.111 268.581L720.515 276.695L714.592 276.924L708.675 276.725L702.825 277.51L697.198 279.738L696.59 280.469L697.415 281.856L704.874 282.904L712.244 281.754L719.906 280.6L717.191 288.051L711.859 289.081L705.751 289.755L699.363 289.824L703.369 294.453L708.176 297.522L713.81 296.351L719.322 295.08L724.299 292.394L725.556 292.594L727.343 299.542L729.576 306.201L722.681 308.837L715.243 310.961L708.39 311.118L701.568 310.147L694.76 308.342L689.592 303.55L685.296 298.206L681.929 293.182L676.838 293.402L671.964 292.792L673.35 285.575L673.326 285.555Z" fill="#0270E3"/>
<path d="M824.74 277.179L818.616 273.263L813.481 269.323L809.206 264.45L805.602 260.032L811.268 259.939L817.552 257.764L824.148 257.743L828.289 262.134L832.383 266.259L835.011 261.043L838.54 255.835L845.115 256.086L851.196 254.875L856.724 255.245L854.398 260.567L850.684 265.725L845.814 270.066L842.864 275.446L846.112 280.414L851.2 283.84L855.325 288.299L859.389 292.832L863.84 295.934L858.334 296.778L852.196 298.354L845.879 297.967L842.769 293.279L838.012 290.273L834.147 286.194L830.449 290.54L828.162 295.792L824.17 299.647L817.979 299.901L811.718 300.611L805.272 301.766L808.535 296.357L813.253 292.323L815.746 286.625L819.247 281.599L824.698 277.205L824.74 277.179Z" fill="#0270E3"/>
<path d="M1230.18 263.645L1224.83 262.247L1218.87 263.109L1213.27 261.508L1208.81 258.294L1211.05 251.967L1213.83 245.747L1218.58 248.642L1223.81 250.187L1230.01 250.81L1227.88 244.051L1227.79 237.398L1220.78 236.332L1214.93 232.007L1210.39 226.956L1207.17 220.59L1208.42 214.826L1210.75 209.751L1214.42 205.61L1218.63 201.217L1224.48 200.365L1223.42 192.112L1232.38 191.019L1231.65 200.065L1239.74 200.313L1247.13 202.379L1244.15 208.437L1241.81 214.098L1233.72 212.479L1234.24 218.148L1235.43 223.552L1240.24 225.923L1246.04 227.033L1250.8 230.535L1253.85 235.521L1255.36 241.166L1255.19 247.213L1253.05 252.856L1248.57 256.801L1244.45 261.703L1238.03 262.609L1238.33 271.471L1230.97 272.98L1230.12 263.763L1230.18 263.645ZM1226.47 222.8L1227.25 217.8L1225.14 213.425L1222.34 218.499L1226.47 222.8ZM1236.23 238.311L1235.49 244.049L1237.67 249.16L1241.13 243.127L1236.23 238.311Z" fill="#0270E3"/>
<path d="M946.003 257.979L943.14 251.332L940.796 245.674L940.465 238.39L944.763 232.481L950.819 229.044L956.782 225.322L963.782 224.319L970.113 224.615L976.629 224.466L982.126 227.922L986.597 232.238L989.745 237.575L991.673 243.857L986.185 245.397L980.441 245.114L974.83 247.52L971.797 240.98L965.668 237.492L960.548 241.316L958.482 246.524L961.492 255.273L969.079 255.746L975.937 254.913L977.596 261.94L970.889 261.476L964.517 262.219L966.089 265.113L963.991 272.17L970.479 273.194L977.486 274.463L982.774 272.222L984.516 266.683L990.65 269.72L996.965 271.796L993.981 276.819L991.304 281.994L986.659 285.594L980.77 286.923L974.577 287.649L968.498 286.182L962.315 285.783L956.205 284.229L950.658 289.284L944.897 287.608L939.609 284.696L942.281 279.476L946.233 274.702L952.427 272.76L951.425 268.959L950.715 263.442L944.142 265.914L938.151 264.664L937.313 258.485L946.029 258.021L946.003 257.979Z" fill="#0270E3"/>
<path d="M1076.56 246.139L1082.54 246.265L1088.52 243.69L1094.75 243.861L1100.96 243.785L1107.19 243.956L1113.28 242.405L1119.83 241.421L1120.04 247.388L1120.11 252.536L1114.19 252.562L1108.19 254.847L1101.96 254.676L1095.76 254.863L1089.57 255.117L1083.44 256.243L1076.65 257.654L1076.37 251.401L1076.55 246.186L1076.56 246.139ZM1089.77 232.817L1091.79 228.108L1096.05 223.958L1101.8 226.266L1104.06 231.504L1101.99 236.443L1097.49 239.581L1091.51 238.509L1089.77 232.817ZM1092.91 267.008L1094.91 262.278L1099.19 258.127L1104.96 260.409L1107.2 265.673L1105.13 270.611L1100.63 273.749L1094.65 272.677L1092.91 266.986L1092.91 267.008Z" fill="#0270E3"/>
<path d="M187.52 487.502L182.167 486.103L176.212 486.966L170.616 485.364L166.156 482.151L168.389 475.824L171.172 469.604L175.919 472.499L181.149 474.044L187.353 474.666L185.224 467.908L185.13 461.255L178.12 460.188L172.274 455.864L167.734 450.812L164.515 444.446L165.764 438.683L168.09 433.608L171.762 429.467L175.974 425.074L181.818 424.222L180.767 415.968L189.718 414.876L188.995 423.922L197.079 424.17L204.473 426.236L201.495 432.294L199.156 437.955L191.059 436.336L191.58 442.004L192.774 447.409L197.586 449.78L203.384 450.89L208.141 454.391L211.189 459.378L212.698 465.023L212.533 471.07L210.395 476.713L205.917 480.658L201.796 485.56L195.373 486.465L195.669 495.328L188.31 496.837L187.463 487.62L187.52 487.502ZM183.812 446.657L184.59 441.656L182.477 437.282L179.679 442.355L183.812 446.657ZM193.568 462.167L192.834 467.906L195.015 473.017L198.468 466.983L193.568 462.167Z" fill="#0270E3"/>
<path d="M33.9069 469.996L39.8851 470.122L45.8629 467.547L52.0929 467.717L58.3003 467.642L64.5304 467.812L70.6248 466.262L77.1765 465.277L77.3871 471.245L77.4548 476.392L71.5355 476.419L65.5311 478.703L59.3011 478.533L53.1039 478.72L46.9129 478.974L40.7794 480.1L33.9967 481.511L33.7148 475.258L33.8886 470.043L33.9069 469.996ZM47.1154 456.674L49.1369 451.965L53.3938 447.815L59.1448 450.122L61.4049 455.361L59.3369 460.3L54.8293 463.437L48.8542 462.366L47.1154 456.674ZM50.2571 490.865L52.2542 486.135L56.5334 481.983L62.3046 484.266L64.5445 489.529L62.4765 494.468L57.9689 497.605L51.9939 496.534L50.255 490.842L50.2571 490.865Z" fill="#0270E3"/>
<path d="M327.024 567.21L321.672 565.811L315.717 566.673L310.121 565.072L305.66 561.858L307.894 555.532L310.677 549.312L315.424 552.207L320.654 553.751L326.858 554.374L324.729 547.616L324.635 540.962L317.625 539.896L311.779 535.572L307.239 530.52L304.02 524.154L305.269 518.39L307.594 513.315L311.267 509.174L315.479 504.781L321.322 503.929L320.271 495.676L329.222 494.584L328.5 503.63L336.583 503.877L343.978 505.944L341 512.001L338.661 517.663L330.564 516.044L331.085 521.712L332.279 527.116L337.09 529.488L342.889 530.598L347.646 534.099L350.694 539.086L352.203 544.731L352.038 550.778L349.9 556.421L345.421 560.365L341.301 565.268L334.877 566.173L335.174 575.036L327.815 576.545L326.968 567.328L327.024 567.21ZM323.316 526.365L324.095 521.364L321.982 516.99L319.183 522.063L323.316 526.365ZM333.072 541.875L332.339 547.614L334.52 552.725L337.973 546.691L333.072 541.875Z" fill="#0270E3"/>
<path d="M43.6774 570.555L40.8151 563.908L38.4713 558.25L38.1398 550.966L42.4377 545.057L48.4938 541.62L54.4563 537.898L61.4567 536.895L67.7883 537.191L74.3042 537.042L79.8004 540.498L84.2723 544.814L87.4196 550.151L89.3478 556.433L83.8603 557.973L78.1153 557.69L72.5048 560.096L69.4721 553.556L63.3425 550.068L58.2225 553.892L56.1568 559.1L59.1673 567.849L66.7535 568.322L73.6119 567.489L75.2708 574.516L68.5635 574.052L62.1922 574.795L63.7641 577.689L61.6656 584.746L68.1542 585.77L75.1607 587.039L80.4486 584.798L82.1912 579.259L88.3244 582.296L94.6394 584.372L91.656 589.395L88.9793 594.57L84.3341 598.17L78.4445 599.499L72.2519 600.225L66.1729 598.758L59.9894 598.359L53.8798 596.804L48.3327 601.86L42.5722 600.184L37.2836 597.272L39.9562 592.052L43.9081 587.278L50.1016 585.336L49.0994 581.535L48.3899 576.018L41.8172 578.49L35.8257 577.24L34.9877 571.061L43.7038 570.597L43.6774 570.555Z" fill="#0270E3"/>
<path d="M174.24 558.715L180.218 558.841L186.196 556.266L192.426 556.436L198.633 556.361L204.863 556.531L210.958 554.981L217.509 553.996L217.72 559.964L217.788 565.111L211.868 565.138L205.864 567.422L199.634 567.252L193.437 567.439L187.246 567.693L181.112 568.819L174.329 570.23L174.048 563.977L174.221 558.762L174.24 558.715ZM187.448 545.393L189.47 540.684L193.727 536.534L199.478 538.841L201.738 544.08L199.67 549.019L195.162 552.156L189.187 551.085L187.448 545.393ZM190.59 579.584L192.587 574.854L196.866 570.702L202.637 572.985L204.877 578.248L202.809 583.187L198.302 586.324L192.327 585.253L190.588 579.561L190.59 579.584Z" fill="#0270E3"/>
<path d="M287.667 439.955L294.767 439.797L293.898 436.951L294.272 433.676L288.196 435.18L289.734 427.904L294.833 427.278L296.224 421.096L298.878 415.428L303.514 411.244L308.139 407.173L313.438 403.828L319.581 402.565L325.76 402.178L333.03 400.925L339.716 402.876L339.77 410.073L337.356 416.889L336.963 417.758L332.523 415.015L327.562 416.641L321.377 417.209L315.186 419.421L312.398 425.596L318.521 425.822L324.47 424.892L330.367 423.405L336.453 422.981L334.856 431.095L328.933 431.324L323.016 431.125L317.166 431.91L311.539 434.138L310.931 434.869L311.757 436.256L319.216 437.303L326.585 436.153L334.247 434.999L331.532 442.451L326.2 443.481L320.093 444.155L313.705 444.224L317.71 448.852L322.518 451.921L328.152 450.751L333.664 449.479L338.641 446.794L339.897 446.993L341.684 453.941L343.917 460.6L337.022 463.237L329.584 465.361L322.731 465.518L315.91 464.547L309.102 462.742L303.933 457.95L299.637 452.606L296.271 447.581L291.18 447.802L286.305 447.192L287.691 439.975L287.667 439.955Z" fill="#0270E3"/>
<path d="M439.082 431.578L432.958 427.662L427.822 423.723L423.547 418.849L419.944 414.431L425.609 414.338L431.894 412.163L438.489 412.142L442.63 416.533L446.724 420.658L449.352 415.443L452.881 410.235L459.457 410.486L465.537 409.274L471.065 409.644L468.74 414.967L465.026 420.124L460.156 424.465L457.205 429.845L460.454 434.813L465.542 438.239L469.667 442.699L473.731 447.232L478.181 450.334L472.675 451.177L466.538 452.754L460.22 452.367L457.11 447.679L452.353 444.672L448.489 440.594L444.79 444.94L442.503 450.191L438.512 454.046L432.321 454.3L426.059 455.01L419.613 456.165L422.876 450.757L427.594 446.722L430.088 441.024L433.589 435.999L439.039 431.604L439.082 431.578Z" fill="#0270E3"/>
<path d="M844.519 418.045L839.167 416.646L833.211 417.509L827.616 415.907L823.155 412.694L825.388 406.367L828.171 400.147L832.918 403.042L838.148 404.587L844.353 405.209L842.223 398.451L842.129 391.798L835.119 390.731L829.273 386.407L824.733 381.355L821.514 374.989L822.763 369.226L825.089 364.151L828.761 360.01L832.973 355.617L838.817 354.765L837.766 346.511L846.717 345.419L845.994 354.465L854.078 354.713L861.472 356.779L858.494 362.837L856.155 368.498L848.058 366.879L848.579 372.547L849.773 377.952L854.585 380.323L860.383 381.433L865.14 384.934L868.188 389.921L869.697 395.566L869.532 401.613L867.394 407.256L862.916 411.201L858.795 416.103L852.372 417.008L852.668 425.871L845.309 427.38L844.462 418.163L844.519 418.045ZM840.811 377.2L841.589 372.199L839.476 367.825L836.678 372.898L840.811 377.2ZM850.567 392.71L849.833 398.449L852.014 403.56L855.467 397.526L850.567 392.71Z" fill="#0270E3"/>
<path d="M560.344 412.378L557.481 405.732L555.138 400.073L554.806 392.789L559.104 386.881L565.16 383.443L571.123 379.722L578.123 378.719L584.455 379.015L590.97 378.866L596.467 382.322L600.939 386.637L604.086 391.975L606.014 398.257L600.527 399.796L594.782 399.514L589.171 401.92L586.138 395.379L580.009 391.891L574.889 395.715L572.823 400.924L575.834 409.672L583.42 410.145L590.278 409.313L591.937 416.34L585.23 415.876L578.858 416.619L580.43 419.513L578.332 426.57L584.82 427.594L591.827 428.863L597.115 426.622L598.857 421.083L604.991 424.12L611.306 426.196L608.322 431.218L605.646 436.393L601 439.993L595.111 441.322L588.918 442.049L582.839 440.582L576.656 440.182L570.546 438.628L564.999 443.684L559.238 442.008L553.95 439.095L556.622 433.876L560.574 429.102L566.768 427.16L565.766 423.358L565.056 417.842L558.483 420.314L552.492 419.064L551.654 412.884L560.37 412.421L560.344 412.378Z" fill="#0270E3"/>
<path d="M690.906 400.539L696.884 400.665L702.862 398.09L709.092 398.26L715.299 398.185L721.529 398.355L727.624 396.805L734.176 395.82L734.386 401.788L734.454 406.935L728.535 406.962L722.53 409.246L716.3 409.076L710.103 409.263L703.912 409.517L697.778 410.643L690.996 412.054L690.714 405.801L690.888 400.586L690.906 400.539ZM704.114 387.217L706.136 382.508L710.393 378.358L716.144 380.665L718.404 385.904L716.336 390.843L711.828 393.98L705.853 392.909L704.114 387.217ZM707.256 421.408L709.253 416.678L713.532 412.526L719.304 414.809L721.544 420.072L719.476 425.011L714.968 428.148L708.993 427.077L707.254 421.385L707.256 421.408Z" fill="#0270E3"/>
<path d="M427.999 528.674L435.1 528.516L434.23 525.67L434.605 522.395L428.529 523.899L430.067 516.623L435.165 515.997L436.556 509.815L439.21 504.147L443.847 499.963L448.471 495.892L453.77 492.547L459.914 491.284L466.092 490.897L473.362 489.644L480.049 491.595L480.102 498.792L477.689 505.608L477.296 506.477L472.856 503.734L467.894 505.36L461.71 505.928L455.518 508.14L452.731 514.315L458.853 514.541L464.802 513.611L470.7 512.124L476.785 511.7L475.189 519.814L469.266 520.043L463.348 519.844L457.499 520.629L451.872 522.857L451.264 523.588L452.089 524.975L459.548 526.022L466.918 524.872L474.58 523.718L471.864 531.17L466.533 532.2L460.425 532.874L454.037 532.943L458.042 537.571L462.85 540.64L468.484 539.47L473.996 538.198L478.973 535.513L480.23 535.712L482.017 542.66L484.25 549.319L477.354 551.956L469.917 554.08L463.064 554.237L456.242 553.266L449.434 551.461L444.266 546.669L439.969 541.325L436.603 536.3L431.512 536.521L426.638 535.911L428.024 528.694L427.999 528.674Z" fill="#0270E3"/>
<path d="M579.414 520.297L573.29 516.381L568.155 512.442L563.879 507.568L560.276 503.15L565.942 503.057L572.226 500.882L578.822 500.861L582.963 505.252L587.057 509.377L589.685 504.162L593.214 498.954L599.789 499.205L605.87 497.993L611.398 498.363L609.072 503.686L605.358 508.843L600.488 513.184L597.538 518.564L600.786 523.532L605.874 526.958L609.999 531.418L614.063 535.951L618.514 539.053L613.007 539.896L606.87 541.473L600.553 541.086L597.443 536.398L592.686 533.391L588.821 529.313L585.122 533.659L582.836 538.91L578.844 542.765L572.653 543.019L566.392 543.729L559.946 544.884L563.209 539.476L567.927 535.441L570.42 529.743L573.921 524.718L579.371 520.323L579.414 520.297Z" fill="#0270E3"/>
<path d="M984.851 506.764L979.499 505.365L973.544 506.228L967.948 504.626L963.487 501.413L965.72 495.086L968.504 488.866L973.25 491.761L978.481 493.306L984.685 493.928L982.555 487.17L982.462 480.517L975.452 479.45L969.605 475.126L965.066 470.074L961.847 463.708L963.096 457.945L965.421 452.87L969.094 448.729L973.306 444.336L979.149 443.484L978.098 435.23L987.049 434.138L986.327 443.184L994.41 443.432L1001.81 445.498L998.827 451.556L996.487 457.217L988.391 455.598L988.911 461.266L990.106 466.671L994.917 469.042L1000.72 470.152L1005.47 473.653L1008.52 478.64L1010.03 484.285L1009.86 490.332L1007.73 495.975L1003.25 499.92L999.128 504.822L992.704 505.727L993.001 514.59L985.641 516.099L984.794 506.882L984.851 506.764ZM981.143 465.919L981.922 460.918L979.809 456.544L977.01 461.617L981.143 465.919ZM990.899 481.429L990.166 487.168L992.346 492.279L995.8 486.245L990.899 481.429Z" fill="#0270E3"/>
<path d="M700.676 501.097L697.814 494.451L695.47 488.792L695.139 481.508L699.437 475.6L705.493 472.162L711.455 468.441L718.456 467.438L724.787 467.734L731.303 467.585L736.799 471.041L741.271 475.356L744.419 480.694L746.347 486.976L740.859 488.515L735.114 488.233L729.504 490.639L726.471 484.098L720.342 480.61L715.222 484.434L713.156 489.643L716.166 498.391L723.753 498.864L730.611 498.032L732.27 505.059L725.563 504.595L719.191 505.338L720.763 508.232L718.665 515.289L725.153 516.313L732.16 517.582L737.448 515.341L739.19 509.802L745.323 512.839L751.638 514.915L748.655 519.937L745.978 525.112L741.333 528.712L735.444 530.041L729.251 530.768L723.172 529.301L716.988 528.901L710.879 527.347L705.332 532.403L699.571 530.727L694.283 527.814L696.955 522.595L700.907 517.821L707.101 515.879L706.098 512.077L705.389 506.561L698.816 509.033L692.825 507.783L691.987 501.603L700.703 501.14L700.676 501.097Z" fill="#0270E3"/>
<path d="M831.238 489.258L837.217 489.384L843.194 486.809L849.424 486.979L855.632 486.904L861.862 487.074L867.956 485.524L874.508 484.539L874.719 490.507L874.786 495.654L868.867 495.681L862.863 497.965L856.633 497.795L850.435 497.982L844.244 498.236L838.111 499.362L831.328 500.773L831.046 494.52L831.22 489.305L831.238 489.258ZM844.447 475.936L846.468 471.227L850.725 467.077L856.476 469.384L858.736 474.623L856.668 479.562L852.161 482.699L846.186 481.628L844.447 475.936ZM847.589 510.127L849.586 505.397L853.865 501.245L859.636 503.528L861.876 508.791L859.808 513.73L855.301 516.867L849.325 515.796L847.587 510.104L847.589 510.127Z" fill="#0270E3"/>
<path d="M1193.87 133.631L1200.97 133.474L1200.1 130.628L1200.48 127.353L1194.4 128.856L1195.94 121.581L1201.04 120.955L1202.43 114.773L1205.08 109.105L1209.72 104.921L1214.34 100.85L1219.64 97.5044L1225.79 96.2422L1231.96 95.8545L1239.23 94.6014L1245.92 96.5527L1245.97 103.75L1243.56 110.566L1243.17 111.434L1238.73 108.692L1233.77 110.318L1227.58 110.886L1221.39 113.098L1218.6 119.273L1224.72 119.498L1230.67 118.569L1236.57 117.082L1242.66 116.658L1241.06 124.772L1235.14 125.001L1229.22 124.802L1223.37 125.587L1217.74 127.814L1217.14 128.545L1217.96 129.932L1225.42 130.98L1232.79 129.83L1240.45 128.676L1237.74 136.128L1232.4 137.158L1226.3 137.831L1219.91 137.901L1223.91 142.529L1228.72 145.598L1234.36 144.428L1239.87 143.156L1244.84 140.471L1246.1 140.67L1247.89 147.618L1250.12 154.277L1243.23 156.914L1235.79 159.038L1228.94 159.195L1222.11 158.223L1215.31 156.418L1210.14 151.627L1205.84 146.283L1202.47 141.258L1197.38 141.478L1192.51 140.868L1193.9 133.652L1193.87 133.631Z" fill="#0270E3"/>
<path d="M1345.29 125.255L1339.16 121.339L1334.03 117.4L1329.75 112.526L1326.15 108.108L1331.81 108.015L1338.1 105.84L1344.69 105.819L1348.83 110.21L1352.93 114.335L1355.56 109.12L1359.09 103.912L1365.66 104.163L1371.74 102.951L1377.27 103.321L1374.94 108.644L1371.23 113.801L1366.36 118.142L1363.41 123.522L1366.66 128.49L1371.75 131.916L1375.87 136.376L1379.93 140.909L1384.39 144.011L1378.88 144.854L1372.74 146.431L1366.42 146.044L1363.31 141.356L1358.56 138.349L1354.69 134.271L1350.99 138.617L1348.71 143.868L1344.72 147.723L1338.52 147.977L1332.26 148.687L1325.82 149.842L1329.08 144.434L1333.8 140.399L1336.29 134.701L1339.79 129.676L1345.24 125.281L1345.29 125.255Z" fill="#0270E3"/>
<path d="M1750.72 111.722L1745.37 110.323L1739.42 111.185L1733.82 109.584L1729.36 106.37L1731.59 100.044L1734.38 93.8237L1739.12 96.7185L1744.35 98.2634L1750.56 98.8861L1748.43 92.1275L1748.33 85.4743L1741.32 84.408L1735.48 80.0839L1730.94 75.0321L1727.72 68.6661L1728.97 62.9023L1731.29 57.8273L1734.97 53.6864L1739.18 49.2933L1745.02 48.4413L1743.97 40.1881L1752.92 39.0956L1752.2 48.1419L1760.28 48.3894L1767.68 50.4556L1764.7 56.5133L1762.36 62.1747L1754.26 60.5556L1754.78 66.2242L1755.98 71.6284L1760.79 73.9996L1766.59 75.1097L1771.34 78.6111L1774.39 83.5975L1775.9 89.2428L1775.74 95.2896L1773.6 100.933L1769.12 104.877L1765 109.78L1758.58 110.685L1758.87 119.548L1751.51 121.057L1750.67 111.84L1750.72 111.722ZM1747.01 70.8766L1747.79 65.8762L1745.68 61.5016L1742.88 66.5751L1747.01 70.8766ZM1756.77 86.387L1756.04 92.1259L1758.22 97.2369L1761.67 91.2031L1756.77 86.387Z" fill="#0270E3"/>
<path d="M1466.55 106.055L1463.69 99.4089L1461.34 93.7502L1461.01 86.4662L1465.31 80.5573L1471.36 77.12L1477.33 73.3988L1484.33 72.3955L1490.66 72.6914L1497.17 72.5428L1502.67 75.9988L1507.14 80.3142L1510.29 85.6515L1512.22 91.9335L1506.73 93.473L1500.99 93.1907L1495.38 95.5967L1492.34 89.0561L1486.21 85.5682L1481.09 89.3921L1479.03 94.6007L1482.04 103.349L1489.62 103.822L1496.48 102.99L1498.14 110.016L1491.43 109.552L1485.06 110.295L1486.63 113.189L1484.54 120.246L1491.02 121.271L1498.03 122.54L1503.32 120.299L1505.06 114.76L1511.19 117.797L1517.51 119.872L1514.53 124.895L1511.85 130.07L1507.2 133.67L1501.31 134.999L1495.12 135.726L1489.04 134.259L1482.86 133.859L1476.75 132.305L1471.2 137.361L1465.44 135.685L1460.15 132.772L1462.83 127.553L1466.78 122.778L1472.97 120.836L1471.97 117.035L1471.26 111.519L1464.69 113.991L1458.7 112.741L1457.86 106.561L1466.57 106.098L1466.55 106.055Z" fill="#0270E3"/>
<path d="M1597.11 94.2158L1603.09 94.3416L1609.07 91.7668L1615.3 91.9371L1621.5 91.8618L1627.73 92.032L1633.83 90.4818L1640.38 89.4972L1640.59 95.4644L1640.66 100.612L1634.74 100.638L1628.73 102.923L1622.5 102.753L1616.31 102.94L1610.12 103.193L1603.98 104.32L1597.2 105.731L1596.92 99.4773L1597.09 94.2625L1597.11 94.2158ZM1610.32 80.8939L1612.34 76.1844L1616.6 72.0348L1622.35 74.3421L1624.61 79.5809L1622.54 84.5196L1618.03 87.657L1612.06 86.5856L1610.32 80.8939ZM1613.46 115.084L1615.46 110.355L1619.74 106.203L1625.51 108.486L1627.75 113.749L1625.68 118.688L1621.17 121.825L1615.2 120.754L1613.46 115.062L1613.46 115.084Z" fill="#0270E3"/>
<path d="M1334.2 222.35L1341.3 222.193L1340.43 219.347L1340.81 216.072L1334.73 217.575L1336.27 210.3L1341.37 209.674L1342.76 203.492L1345.41 197.824L1350.05 193.639L1354.68 189.569L1359.97 186.223L1366.12 184.961L1372.3 184.574L1379.57 183.32L1386.25 185.272L1386.31 192.469L1383.89 199.285L1383.5 200.153L1379.06 197.411L1374.1 199.037L1367.91 199.605L1361.72 201.817L1358.94 207.992L1365.06 208.217L1371.01 207.288L1376.9 205.801L1382.99 205.377L1381.39 213.491L1375.47 213.72L1369.55 213.521L1363.7 214.306L1358.08 216.533L1357.47 217.264L1358.29 218.651L1365.75 219.699L1373.12 218.549L1380.78 217.395L1378.07 224.846L1372.74 225.877L1366.63 226.55L1360.24 226.62L1364.25 231.248L1369.05 234.317L1374.69 233.147L1380.2 231.875L1385.18 229.19L1386.43 229.389L1388.22 236.337L1390.45 242.996L1383.56 245.633L1376.12 247.757L1369.27 247.914L1362.45 246.942L1355.64 245.137L1350.47 240.346L1346.17 235.002L1342.81 229.977L1337.72 230.197L1332.84 229.587L1334.23 222.371L1334.2 222.35Z" fill="#0270E3"/>
<path d="M1485.62 213.974L1479.49 210.058L1474.36 206.119L1470.08 201.245L1466.48 196.827L1472.15 196.734L1478.43 194.559L1485.03 194.538L1489.17 198.929L1493.26 203.054L1495.89 197.839L1499.42 192.631L1505.99 192.882L1512.07 191.67L1517.6 192.04L1515.28 197.363L1511.56 202.52L1506.69 206.861L1503.74 212.241L1506.99 217.209L1512.08 220.635L1516.2 225.095L1520.27 229.628L1524.72 232.73L1519.21 233.573L1513.07 235.15L1506.76 234.763L1503.65 230.075L1498.89 227.068L1495.03 222.99L1491.33 227.336L1489.04 232.587L1485.05 236.442L1478.86 236.696L1472.6 237.406L1466.15 238.561L1469.41 233.153L1474.13 229.118L1476.62 223.42L1480.13 218.395L1485.58 214L1485.62 213.974Z" fill="#0270E3"/>
<path d="M1890.23 191.43L1884.88 190.031L1878.92 190.893L1873.32 189.292L1868.86 186.078L1871.1 179.751L1873.88 173.532L1878.63 176.426L1883.86 177.971L1890.06 178.594L1887.93 171.835L1887.84 165.182L1880.83 164.116L1874.98 159.792L1870.44 154.74L1867.22 148.374L1868.47 142.61L1870.8 137.535L1874.47 133.394L1878.68 129.001L1884.53 128.149L1883.47 119.896L1892.43 118.803L1891.7 127.85L1899.79 128.097L1907.18 130.163L1904.2 136.221L1901.86 141.882L1893.77 140.263L1894.29 145.932L1895.48 151.336L1900.29 153.707L1906.09 154.817L1910.85 158.319L1913.9 163.305L1915.41 168.951L1915.24 174.997L1913.1 180.64L1908.62 184.585L1904.5 189.488L1898.08 190.393L1898.38 199.256L1891.02 200.764L1890.17 191.547L1890.23 191.43ZM1886.52 150.584L1887.3 145.584L1885.18 141.209L1882.39 146.283L1886.52 150.584ZM1896.28 166.095L1895.54 171.834L1897.72 176.945L1901.18 170.911L1896.28 166.095Z" fill="#0270E3"/>
<path d="M1606.88 194.774L1604.02 188.128L1601.67 182.469L1601.34 175.185L1605.64 169.277L1611.7 165.839L1617.66 162.118L1624.66 161.115L1630.99 161.411L1637.51 161.262L1643 164.718L1647.48 169.033L1650.62 174.371L1652.55 180.653L1647.06 182.192L1641.32 181.91L1635.71 184.316L1632.68 177.775L1626.55 174.287L1621.43 178.111L1619.36 183.32L1622.37 192.068L1629.96 192.541L1636.82 191.709L1638.47 198.736L1631.77 198.272L1625.4 199.015L1626.97 201.909L1624.87 208.966L1631.36 209.99L1638.36 211.259L1643.65 209.018L1645.39 203.479L1651.53 206.516L1657.84 208.592L1654.86 213.614L1652.18 218.789L1647.54 222.389L1641.65 223.718L1635.46 224.445L1629.38 222.978L1623.19 222.578L1617.08 221.024L1611.54 226.08L1605.78 224.404L1600.49 221.491L1603.16 216.272L1607.11 211.498L1613.3 209.556L1612.3 205.754L1611.59 200.238L1605.02 202.71L1599.03 201.46L1598.19 195.28L1606.91 194.817L1606.88 194.774Z" fill="#0270E3"/>
<path d="M1737.44 182.935L1743.42 183.061L1749.4 180.486L1755.63 180.656L1761.84 180.581L1768.07 180.751L1774.16 179.201L1780.71 178.216L1780.92 184.183L1780.99 189.331L1775.07 189.357L1769.07 191.642L1762.84 191.472L1756.64 191.659L1750.45 191.912L1744.32 193.039L1737.53 194.45L1737.25 188.196L1737.42 182.981L1737.44 182.935ZM1750.65 169.613L1752.67 164.903L1756.93 160.754L1762.68 163.061L1764.94 168.3L1762.87 173.239L1758.37 176.376L1752.39 175.305L1750.65 169.613ZM1753.79 203.803L1755.79 199.074L1760.07 194.922L1765.84 197.205L1768.08 202.468L1766.01 207.407L1761.5 210.544L1755.53 209.473L1753.79 203.781L1753.79 203.803Z" fill="#0270E3"/>
<path d="M1850.87 64.1744L1857.97 64.0171L1857.1 61.1712L1857.48 57.8959L1851.4 59.3995L1852.94 52.1237L1858.04 51.4977L1859.43 45.3158L1862.08 39.648L1866.72 35.4635L1871.34 31.3926L1876.64 28.0474L1882.78 26.7852L1888.96 26.3975L1896.23 25.1443L1902.92 27.0956L1902.97 34.2926L1900.56 41.1086L1900.17 41.9775L1895.73 39.2346L1890.76 40.8608L1884.58 41.4291L1878.39 43.641L1875.6 49.8162L1881.72 50.0413L1887.67 49.1121L1893.57 47.6249L1899.66 47.2008L1898.06 55.3145L1892.14 55.5437L1886.22 55.3448L1880.37 56.1298L1874.74 58.3573L1874.13 59.0884L1874.96 60.4754L1882.42 61.523L1889.79 60.3732L1897.45 59.2191L1894.74 66.6705L1889.4 67.7005L1883.3 68.3742L1876.91 68.4436L1880.91 73.0719L1885.72 76.1411L1891.35 74.9707L1896.87 73.699L1901.84 71.0136L1903.1 71.2132L1904.89 78.1609L1907.12 84.82L1900.23 87.4567L1892.79 89.5805L1885.93 89.7375L1879.11 88.7664L1872.3 86.9613L1867.14 82.1699L1862.84 76.8256L1859.47 71.801L1854.38 72.0212L1849.51 71.4114L1850.89 64.1946L1850.87 64.1744Z" fill="#0270E3"/>
<path d="M2002.28 55.7977L1996.16 51.8817L1991.03 47.9424L1986.75 43.0688L1983.15 38.6512L1988.81 38.5582L1995.1 36.3828L2001.69 36.3619L2005.83 40.7527L2009.93 44.8777L2012.56 39.6624L2016.08 34.4543L2022.66 34.7053L2028.74 33.494L2034.27 33.8637L2031.94 39.1863L2028.23 44.3438L2023.36 48.6848L2020.41 54.0648L2023.66 59.0327L2028.74 62.4587L2032.87 66.9185L2036.93 71.4513L2041.38 74.5533L2035.88 75.3969L2029.74 76.9736L2023.42 76.5863L2020.31 71.8983L2015.56 68.892L2011.69 64.8134L2007.99 69.1593L2005.71 74.4108L2001.71 78.266L1995.52 78.5198L1989.26 79.2302L1982.82 80.3851L1986.08 74.9764L1990.8 70.942L1993.29 65.2439L1996.79 60.2184L2002.24 55.8241L2002.28 55.7977Z" fill="#0270E3"/>
<path d="M2123.55 36.5981L2120.68 29.9518L2118.34 24.2931L2118.01 17.0091L2122.31 11.1003L2128.36 7.66301L2134.33 3.94179L2141.33 2.93846L2147.66 3.2344L2154.17 3.08579L2159.67 6.54181L2164.14 10.8572L2167.29 16.1945L2169.22 22.4765L2163.73 24.016L2157.98 23.7337L2152.37 26.1397L2149.34 19.5991L2143.21 16.1112L2138.09 19.9351L2136.03 25.1437L2139.04 33.892L2146.62 34.3652L2153.48 33.5325L2155.14 40.5594L2148.43 40.0955L2142.06 40.8384L2143.63 43.7323L2141.53 50.7895L2148.02 51.8137L2155.03 53.0829L2160.32 50.8415L2162.06 45.3025L2168.19 48.3399L2174.51 50.4153L2171.53 55.4382L2168.85 60.613L2164.2 64.2131L2158.31 65.542L2152.12 66.2686L2146.04 64.8016L2139.86 64.4021L2133.75 62.8479L2128.2 67.9038L2122.44 66.2275L2117.15 63.3151L2119.83 58.0957L2123.78 53.3214L2129.97 51.3794L2128.97 47.578L2128.26 42.0617L2121.69 44.5336L2115.7 43.2837L2114.86 37.104L2123.57 36.6407L2123.55 36.5981Z" fill="#0270E3"/>
<path d="M1991.2 152.893L1998.3 152.736L1997.43 149.89L1997.81 146.615L1991.73 148.118L1993.27 140.843L1998.37 140.217L1999.76 134.035L2002.41 128.367L2007.05 124.182L2011.67 120.112L2016.97 116.766L2023.12 115.504L2029.3 115.117L2036.57 113.863L2043.25 115.815L2043.31 123.012L2040.89 129.828L2040.5 130.696L2036.06 127.954L2031.1 129.58L2024.91 130.148L2018.72 132.36L2015.93 138.535L2022.06 138.76L2028.01 137.831L2033.9 136.344L2039.99 135.92L2038.39 144.034L2032.47 144.263L2026.55 144.064L2020.7 144.849L2015.07 147.076L2014.47 147.807L2015.29 149.194L2022.75 150.242L2030.12 149.092L2037.78 147.938L2035.07 155.389L2029.74 156.42L2023.63 157.093L2017.24 157.163L2021.25 161.791L2026.05 164.86L2031.69 163.69L2037.2 162.418L2042.18 159.733L2043.43 159.932L2045.22 166.88L2047.45 173.539L2040.56 176.176L2033.12 178.299L2026.27 178.457L2019.45 177.485L2012.64 175.68L2007.47 170.889L2003.17 165.545L1999.81 160.52L1994.72 160.74L1989.84 160.13L1991.23 152.914L1991.2 152.893Z" fill="#0270E3"/>
<path d="M2142.62 144.517L2136.49 140.601L2131.36 136.661L2127.08 131.788L2123.48 127.37L2129.14 127.277L2135.43 125.102L2142.02 125.081L2146.17 129.472L2150.26 133.597L2152.89 128.381L2156.42 123.173L2162.99 123.424L2169.07 122.213L2174.6 122.583L2172.27 127.905L2168.56 133.063L2163.69 137.404L2160.74 142.784L2163.99 147.752L2169.08 151.178L2173.2 155.637L2177.27 160.17L2181.72 163.272L2176.21 164.116L2170.07 165.693L2163.76 165.305L2160.65 160.617L2155.89 157.611L2152.02 153.532L2148.33 157.878L2146.04 163.13L2142.05 166.985L2135.86 167.239L2129.59 167.949L2123.15 169.104L2126.41 163.695L2131.13 159.661L2133.62 153.963L2137.12 148.937L2142.57 144.543L2142.62 144.517Z" fill="#0270E3"/>
<path d="M948.545 376.75L955.645 376.593L954.776 373.747L955.15 370.472L949.074 371.975L950.612 364.699L955.711 364.073L957.102 357.891L959.756 352.224L964.392 348.039L969.017 343.968L974.316 340.623L980.459 339.361L986.638 338.973L993.908 337.72L1000.59 339.671L1000.65 346.868L998.234 353.684L997.841 354.553L993.401 351.81L988.44 353.437L982.255 354.005L976.064 356.217L973.276 362.392L979.399 362.617L985.348 361.688L991.245 360.201L997.331 359.776L995.734 367.89L989.811 368.119L983.894 367.92L978.044 368.706L972.417 370.933L971.809 371.664L972.635 373.051L980.094 374.099L987.463 372.949L995.125 371.795L992.41 379.246L987.078 380.276L980.971 380.95L974.583 381.019L978.588 385.648L983.396 388.717L989.03 387.546L994.542 386.275L999.519 383.589L1000.78 383.789L1002.56 390.737L1004.8 397.396L997.9 400.032L990.462 402.156L983.609 402.313L976.788 401.342L969.98 399.537L964.811 394.746L960.515 389.401L957.149 384.377L952.058 384.597L947.183 383.987L948.569 376.77L948.545 376.75Z" fill="#0270E3"/>
<path d="M1099.96 368.373L1093.84 364.457L1088.7 360.518L1084.42 355.645L1080.82 351.227L1086.49 351.134L1092.77 348.958L1099.37 348.938L1103.51 353.328L1107.6 357.453L1110.23 352.238L1113.76 347.03L1120.33 347.281L1126.41 346.07L1131.94 346.439L1129.62 351.762L1125.9 356.92L1121.03 361.261L1118.08 366.64L1121.33 371.608L1126.42 375.034L1130.54 379.494L1134.61 384.027L1139.06 387.129L1133.55 387.973L1127.42 389.549L1121.1 389.162L1117.99 384.474L1113.23 381.468L1109.37 377.389L1105.67 381.735L1103.38 386.986L1099.39 390.842L1093.2 391.095L1086.94 391.806L1080.49 392.961L1083.75 387.552L1088.47 383.518L1090.97 377.82L1094.47 372.794L1099.92 368.4L1099.96 368.373Z" fill="#0270E3"/>
<path d="M1505.4 354.84L1500.04 353.442L1494.09 354.304L1488.49 352.703L1484.03 349.489L1486.27 343.162L1489.05 336.942L1493.8 339.837L1499.03 341.382L1505.23 342.005L1503.1 335.246L1503.01 328.593L1496 327.527L1490.15 323.203L1485.61 318.151L1482.39 311.785L1483.64 306.021L1485.97 300.946L1489.64 296.805L1493.85 292.412L1499.69 291.56L1498.64 283.307L1507.59 282.214L1506.87 291.261L1514.96 291.508L1522.35 293.574L1519.37 299.632L1517.03 305.293L1508.94 303.674L1509.46 309.343L1510.65 314.747L1515.46 317.118L1521.26 318.228L1526.02 321.73L1529.07 326.716L1530.58 332.361L1530.41 338.408L1528.27 344.051L1523.79 347.996L1519.67 352.898L1513.25 353.804L1513.55 362.666L1506.19 364.175L1505.34 354.958L1505.4 354.84ZM1501.69 313.995L1502.47 308.995L1500.35 304.62L1497.56 309.694L1501.69 313.995ZM1511.44 329.506L1510.71 335.245L1512.89 340.356L1516.35 334.322L1511.44 329.506Z" fill="#0270E3"/>
<path d="M1221.22 349.174L1218.36 342.528L1216.02 336.869L1215.68 329.585L1219.98 323.676L1226.04 320.239L1232 316.517L1239 315.514L1245.33 315.81L1251.85 315.661L1257.34 319.117L1261.82 323.433L1264.96 328.77L1266.89 335.052L1261.4 336.592L1255.66 336.309L1250.05 338.715L1247.02 332.175L1240.89 328.687L1235.77 332.511L1233.7 337.719L1236.71 346.468L1244.3 346.941L1251.16 346.108L1252.82 353.135L1246.11 352.671L1239.74 353.414L1241.31 356.308L1239.21 363.365L1245.7 364.389L1252.71 365.659L1257.99 363.417L1259.74 357.878L1265.87 360.916L1272.18 362.991L1269.2 368.014L1266.52 373.189L1261.88 376.789L1255.99 378.118L1249.8 378.844L1243.72 377.377L1237.53 376.978L1231.42 375.424L1225.88 380.479L1220.12 378.803L1214.83 375.891L1217.5 370.671L1221.45 365.897L1227.65 363.955L1226.64 360.154L1225.93 354.637L1219.36 357.109L1213.37 355.859L1212.53 349.68L1221.25 349.216L1221.22 349.174Z" fill="#0270E3"/>
<path d="M1351.78 337.334L1357.76 337.46L1363.74 334.885L1369.97 335.056L1376.18 334.98L1382.41 335.151L1388.5 333.6L1395.05 332.616L1395.26 338.583L1395.33 343.731L1389.41 343.757L1383.41 346.042L1377.18 345.871L1370.98 346.058L1364.79 346.312L1358.66 347.438L1351.87 348.849L1351.59 342.596L1351.77 337.381L1351.78 337.334ZM1364.99 324.013L1367.01 319.303L1371.27 315.153L1377.02 317.461L1379.28 322.7L1377.21 327.638L1372.71 330.776L1366.73 329.704L1364.99 324.013ZM1368.13 358.203L1370.13 353.473L1374.41 349.322L1380.18 351.605L1382.42 356.868L1380.35 361.806L1375.85 364.944L1369.87 363.872L1368.13 358.181L1368.13 358.203Z" fill="#0270E3"/>
<path d="M1088.88 465.469L1095.98 465.312L1095.11 462.466L1095.48 459.191L1089.41 460.694L1090.94 453.418L1096.04 452.792L1097.43 446.61L1100.09 440.943L1104.72 436.758L1109.35 432.687L1114.65 429.342L1120.79 428.08L1126.97 427.692L1134.24 426.439L1140.93 428.39L1140.98 435.587L1138.57 442.403L1138.17 443.272L1133.73 440.529L1128.77 442.156L1122.59 442.724L1116.4 444.936L1113.61 451.111L1119.73 451.336L1125.68 450.407L1131.58 448.92L1137.66 448.495L1136.07 456.609L1130.14 456.838L1124.23 456.639L1118.38 457.424L1112.75 459.652L1112.14 460.383L1112.97 461.77L1120.43 462.818L1127.8 461.668L1135.46 460.514L1132.74 467.965L1127.41 468.995L1121.3 469.669L1114.92 469.738L1118.92 474.367L1123.73 477.436L1129.36 476.265L1134.87 474.994L1139.85 472.308L1141.11 472.508L1142.89 479.456L1145.13 486.115L1138.23 488.751L1130.79 490.875L1123.94 491.032L1117.12 490.061L1110.31 488.256L1105.14 483.465L1100.85 478.12L1097.48 473.096L1092.39 473.316L1087.52 472.706L1088.9 465.489L1088.88 465.469Z" fill="#0270E3"/>
<path d="M1240.29 457.093L1234.17 453.177L1229.03 449.237L1224.76 444.364L1221.15 439.946L1226.82 439.853L1233.1 437.678L1239.7 437.657L1243.84 442.048L1247.93 446.173L1250.56 440.957L1254.09 435.749L1260.67 436L1266.75 434.789L1272.28 435.159L1269.95 440.481L1266.24 445.639L1261.37 449.98L1258.42 455.36L1261.66 460.328L1266.75 463.754L1270.88 468.213L1274.94 472.746L1279.39 475.848L1273.89 476.692L1267.75 478.269L1261.43 477.881L1258.32 473.193L1253.56 470.187L1249.7 466.108L1246 470.454L1243.71 475.706L1239.72 479.561L1233.53 479.815L1227.27 480.525L1220.82 481.68L1224.09 476.271L1228.8 472.237L1231.3 466.539L1234.8 461.513L1240.25 457.119L1240.29 457.093Z" fill="#0270E3"/>
<path d="M1644.9 434.548L1639.55 433.149L1633.59 434.012L1628 432.41L1623.54 429.197L1625.77 422.87L1628.55 416.65L1633.3 419.545L1638.53 421.09L1644.74 421.713L1642.61 414.954L1642.51 408.301L1635.5 407.234L1629.66 402.91L1625.12 397.858L1621.9 391.493L1623.15 385.729L1625.47 380.654L1629.14 376.513L1633.36 372.12L1639.2 371.268L1638.15 363.015L1647.1 361.922L1646.38 370.968L1654.46 371.216L1661.86 373.282L1658.88 379.34L1656.54 385.001L1648.44 383.382L1648.96 389.051L1650.16 394.455L1654.97 396.826L1660.77 397.936L1665.52 401.438L1668.57 406.424L1670.08 412.069L1669.92 418.116L1667.78 423.759L1663.3 427.704L1659.18 432.606L1652.75 433.512L1653.05 442.374L1645.69 443.883L1644.84 434.666L1644.9 434.548ZM1641.19 393.703L1641.97 388.703L1639.86 384.328L1637.06 389.401L1641.19 393.703ZM1650.95 409.213L1650.22 414.952L1652.4 420.063L1655.85 414.029L1650.95 409.213Z" fill="#0270E3"/>
<path d="M1361.55 437.893L1358.69 431.247L1356.35 425.588L1356.02 418.304L1360.31 412.395L1366.37 408.958L1372.33 405.236L1379.33 404.233L1385.67 404.529L1392.18 404.38L1397.68 407.836L1402.15 412.152L1405.3 417.489L1407.22 423.771L1401.74 425.311L1395.99 425.028L1390.38 427.434L1387.35 420.894L1381.22 417.406L1376.1 421.23L1374.03 426.438L1377.04 435.187L1384.63 435.66L1391.49 434.827L1393.15 441.854L1386.44 441.39L1380.07 442.133L1381.64 445.027L1379.54 452.084L1386.03 453.108L1393.04 454.378L1398.33 452.136L1400.07 446.597L1406.2 449.635L1412.52 451.71L1409.53 456.733L1406.86 461.908L1402.21 465.508L1396.32 466.837L1390.13 467.563L1384.05 466.096L1377.87 465.697L1371.76 464.143L1366.21 469.198L1360.45 467.522L1355.16 464.61L1357.83 459.39L1361.78 454.616L1367.98 452.674L1366.98 448.873L1366.27 443.356L1359.69 445.828L1353.7 444.578L1352.86 438.399L1361.58 437.935L1361.55 437.893Z" fill="#0270E3"/>
<path d="M1492.12 426.053L1498.09 426.179L1504.07 423.604L1510.3 423.775L1516.51 423.699L1522.74 423.87L1528.83 422.319L1535.39 421.335L1535.6 427.302L1535.66 432.45L1529.75 432.476L1523.74 434.761L1517.51 434.59L1511.31 434.777L1505.12 435.031L1498.99 436.157L1492.21 437.568L1491.92 431.315L1492.1 426.1L1492.12 426.053ZM1505.32 412.732L1507.35 408.022L1511.6 403.872L1517.35 406.18L1519.61 411.418L1517.55 416.357L1513.04 419.495L1507.06 418.423L1505.32 412.732ZM1508.47 446.922L1510.46 442.192L1514.74 438.041L1520.51 440.324L1522.75 445.587L1520.69 450.525L1516.18 453.663L1510.2 452.591L1508.46 446.9L1508.47 446.922Z" fill="#0270E3"/>
<path d="M1605.54 307.293L1612.64 307.136L1611.77 304.29L1612.15 301.015L1606.07 302.518L1607.61 295.242L1612.71 294.616L1614.1 288.434L1616.75 282.767L1621.39 278.582L1626.02 274.511L1631.31 271.166L1637.46 269.904L1643.64 269.516L1650.91 268.263L1657.59 270.214L1657.65 277.411L1655.23 284.227L1654.84 285.096L1650.4 282.353L1645.44 283.979L1639.25 284.548L1633.06 286.76L1630.28 292.935L1636.4 293.16L1642.35 292.231L1648.24 290.744L1654.33 290.319L1652.73 298.433L1646.81 298.662L1640.89 298.463L1635.04 299.248L1629.42 301.476L1628.81 302.207L1629.63 303.594L1637.09 304.642L1644.46 303.492L1652.12 302.338L1649.41 309.789L1644.08 310.819L1637.97 311.493L1631.58 311.562L1635.59 316.191L1640.39 319.26L1646.03 318.089L1651.54 316.818L1656.52 314.132L1657.77 314.332L1659.56 321.28L1661.79 327.939L1654.9 330.575L1647.46 332.699L1640.61 332.856L1633.79 331.885L1626.98 330.08L1621.81 325.289L1617.51 319.944L1614.15 314.92L1609.06 315.14L1604.18 314.53L1605.57 307.313L1605.54 307.293Z" fill="#0270E3"/>
<path d="M1756.96 298.916L1750.83 295L1745.7 291.061L1741.42 286.187L1737.82 281.77L1743.49 281.677L1749.77 279.501L1756.37 279.481L1760.51 283.871L1764.6 287.996L1767.23 282.781L1770.76 277.573L1777.33 277.824L1783.41 276.613L1788.94 276.982L1786.62 282.305L1782.9 287.462L1778.03 291.803L1775.08 297.183L1778.33 302.151L1783.42 305.577L1787.54 310.037L1791.61 314.57L1796.06 317.672L1790.55 318.516L1784.41 320.092L1778.1 319.705L1774.99 315.017L1770.23 312.011L1766.37 307.932L1762.67 312.278L1760.38 317.529L1756.39 321.385L1750.2 321.638L1743.94 322.349L1737.49 323.504L1740.75 318.095L1745.47 314.061L1747.96 308.363L1751.47 303.337L1756.92 298.943L1756.96 298.916Z" fill="#0270E3"/>
<path d="M2162.4 285.383L2157.04 283.985L2151.09 284.847L2145.49 283.246L2141.03 280.032L2143.26 273.705L2146.05 267.485L2150.79 270.38L2156.03 271.925L2162.23 272.548L2160.1 265.789L2160.01 259.136L2153 258.07L2147.15 253.746L2142.61 248.694L2139.39 242.328L2140.64 236.564L2142.97 231.489L2146.64 227.348L2150.85 222.955L2156.69 222.103L2155.64 213.85L2164.59 212.757L2163.87 221.803L2171.95 222.051L2179.35 224.117L2176.37 230.175L2174.03 235.836L2165.93 234.217L2166.46 239.886L2167.65 245.29L2172.46 247.661L2178.26 248.771L2183.02 252.273L2186.06 257.259L2187.57 262.904L2187.41 268.951L2185.27 274.594L2180.79 278.539L2176.67 283.441L2170.25 284.347L2170.54 293.209L2163.19 294.718L2162.34 285.501L2162.4 285.383ZM2158.69 244.538L2159.47 239.538L2157.35 235.163L2154.55 240.237L2158.69 244.538ZM2168.44 260.049L2167.71 265.787L2169.89 270.899L2173.34 264.865L2168.44 260.049Z" fill="#0270E3"/>
<path d="M1878.22 279.717L1875.36 273.07L1873.01 267.412L1872.68 260.128L1876.98 254.219L1883.04 250.782L1889 247.06L1896 246.057L1902.33 246.353L1908.85 246.204L1914.34 249.66L1918.82 253.976L1921.96 259.313L1923.89 265.595L1918.4 267.135L1912.66 266.852L1907.05 269.258L1904.02 262.718L1897.89 259.23L1892.77 263.054L1890.7 268.262L1893.71 277.011L1901.3 277.484L1908.15 276.651L1909.81 283.678L1903.11 283.214L1896.74 283.957L1898.31 286.851L1896.21 293.908L1902.7 294.932L1909.7 296.202L1914.99 293.96L1916.73 288.421L1922.87 291.459L1929.18 293.534L1926.2 298.557L1923.52 303.732L1918.88 307.332L1912.99 308.661L1906.79 309.387L1900.72 307.92L1894.53 307.521L1888.42 305.967L1882.88 311.022L1877.12 309.346L1871.83 306.434L1874.5 301.214L1878.45 296.44L1884.64 294.498L1883.64 290.697L1882.93 285.18L1876.36 287.652L1870.37 286.402L1869.53 280.223L1878.25 279.759L1878.22 279.717Z" fill="#0270E3"/>
<path d="M2008.78 267.877L2014.76 268.003L2020.74 265.428L2026.97 265.598L2033.18 265.523L2039.41 265.693L2045.5 264.143L2052.05 263.159L2052.26 269.126L2052.33 274.273L2046.41 274.3L2040.41 276.584L2034.18 276.414L2027.98 276.601L2021.79 276.855L2015.66 277.981L2008.87 279.392L2008.59 273.139L2008.76 267.924L2008.78 267.877ZM2021.99 254.555L2024.01 249.846L2028.27 245.696L2034.02 248.003L2036.28 253.242L2034.21 258.181L2029.71 261.318L2023.73 260.247L2021.99 254.555ZM2025.13 288.746L2027.13 284.016L2031.41 279.864L2037.18 282.147L2039.42 287.41L2037.35 292.349L2032.84 295.487L2026.87 294.415L2025.13 288.723L2025.13 288.746Z" fill="#0270E3"/>
<path d="M1745.88 396.012L1752.98 395.855L1752.11 393.009L1752.48 389.734L1746.41 391.237L1747.94 383.961L1753.04 383.335L1754.43 377.153L1757.09 371.486L1761.72 367.301L1766.35 363.23L1771.65 359.885L1777.79 358.623L1783.97 358.235L1791.24 356.982L1797.93 358.933L1797.98 366.13L1795.57 372.946L1795.17 373.815L1790.73 371.072L1785.77 372.698L1779.59 373.267L1773.4 375.479L1770.61 381.654L1776.73 381.879L1782.68 380.95L1788.58 379.463L1794.66 379.038L1793.07 387.152L1787.14 387.381L1781.23 387.182L1775.38 387.967L1769.75 390.195L1769.14 390.926L1769.97 392.313L1777.43 393.361L1784.79 392.211L1792.46 391.057L1789.74 398.508L1784.41 399.538L1778.3 400.212L1771.91 400.281L1775.92 404.91L1780.73 407.979L1786.36 406.808L1791.87 405.537L1796.85 402.851L1798.11 403.051L1799.89 409.999L1802.13 416.658L1795.23 419.294L1787.79 421.418L1780.94 421.575L1774.12 420.604L1767.31 418.799L1762.14 414.008L1757.85 408.663L1754.48 403.639L1749.39 403.859L1744.51 403.249L1745.9 396.032L1745.88 396.012Z" fill="#0270E3"/>
<path d="M1897.29 387.635L1891.17 383.719L1886.03 379.78L1881.76 374.906L1878.15 370.489L1883.82 370.396L1890.1 368.22L1896.7 368.2L1900.84 372.59L1904.93 376.715L1907.56 371.5L1911.09 366.292L1917.67 366.543L1923.75 365.332L1929.27 365.701L1926.95 371.024L1923.23 376.181L1918.37 380.522L1915.41 385.902L1918.66 390.87L1923.75 394.296L1927.88 398.756L1931.94 403.289L1936.39 406.391L1930.88 407.235L1924.75 408.811L1918.43 408.424L1915.32 403.736L1910.56 400.73L1906.7 396.651L1903 400.997L1900.71 406.248L1896.72 410.104L1890.53 410.357L1884.27 411.068L1877.82 412.223L1881.09 406.814L1885.8 402.78L1888.3 397.082L1891.8 392.056L1897.25 387.662L1897.29 387.635Z" fill="#0270E3"/>
<path d="M2018.55 368.436L2015.69 361.789L2013.35 356.131L2013.02 348.847L2017.31 342.938L2023.37 339.501L2029.33 335.779L2036.33 334.776L2042.66 335.072L2049.18 334.923L2054.68 338.379L2059.15 342.695L2062.3 348.032L2064.22 354.314L2058.74 355.854L2052.99 355.571L2047.38 357.977L2044.35 351.437L2038.22 347.949L2033.1 351.773L2031.03 356.981L2034.04 365.73L2041.63 366.203L2048.49 365.37L2050.15 372.397L2043.44 371.933L2037.07 372.676L2038.64 375.57L2036.54 382.627L2043.03 383.651L2050.04 384.921L2055.32 382.679L2057.07 377.14L2063.2 380.178L2069.52 382.253L2066.53 387.276L2063.86 392.451L2059.21 396.051L2053.32 397.38L2047.13 398.106L2041.05 396.639L2034.87 396.24L2028.76 394.686L2023.21 399.741L2017.45 398.065L2012.16 395.153L2014.83 389.933L2018.78 385.159L2024.98 383.217L2023.98 379.416L2023.27 373.899L2016.69 376.371L2010.7 375.121L2009.86 368.942L2018.58 368.478L2018.55 368.436Z" fill="#0270E3"/>
<path d="M2149.12 356.596L2155.09 356.722L2161.07 354.147L2167.3 354.318L2173.51 354.242L2179.74 354.413L2185.83 352.862L2192.39 351.878L2192.6 357.845L2192.66 362.993L2186.74 363.019L2180.74 365.304L2174.51 365.133L2168.31 365.32L2162.12 365.574L2155.99 366.7L2149.21 368.111L2148.92 361.858L2149.1 356.643L2149.12 356.596ZM2162.32 343.274L2164.35 338.565L2168.6 334.415L2174.35 336.723L2176.61 341.961L2174.55 346.9L2170.04 350.038L2164.06 348.966L2162.32 343.274ZM2165.47 377.465L2167.46 372.735L2171.74 368.584L2177.51 370.866L2179.75 376.13L2177.69 381.068L2173.18 384.206L2167.2 383.134L2165.46 377.443L2165.47 377.465Z" fill="#0270E3"/>
</svg>
