<svg width="215" height="137" viewBox="0 0 215 137" fill="none" xmlns="http://www.w3.org/2000/svg">
<path d="M120.225 19.9663C120.225 19.9663 110.106 35.8333 100.33 35.8333H64.4969C54.7216 35.8333 45.8923 41.6957 39.0839 48.2173L7.16361 78.8333C3.30795 82.5313 0.0972788 89.8413 -0.00305454 93.1667C-0.232388 100.333 -0.00305454 107.5 -0.00305454 107.5C-0.00305454 107.5 14.3303 107.5 14.3303 93.1667V86L28.6636 71.6667H35.8303L38.0949 75.8233C38.0949 75.8233 24.4353 101.967 24.4353 126.391C24.4353 136.167 34.1963 136.167 34.1963 136.167H43.9716C43.9716 136.167 48.8593 136.167 43.9716 131.293L39.0983 126.391C39.0839 116.616 50.1636 102.727 57.3303 93.1667C57.3303 93.1667 57.5739 109.765 57.3303 121.833C57.2156 127.71 61.2289 136.167 67.1056 136.167H76.8809C76.8809 136.167 81.7543 136.167 76.8809 131.293L71.9933 126.391C67.5069 118.25 78.8303 86 78.8303 86C97.0623 86 100.33 93.1667 121.83 93.1667L127.048 126.391C128.639 136.568 136.164 136.167 136.164 136.167H157.664C162.537 136.167 171.438 131.709 162.537 125.073L157.664 121.833V93.1667C175.064 90.7013 186.33 78.8333 186.33 64.5H200.664C205.265 64.5 214.997 64.5 214.997 57.3333V43L190.573 18.8913C179.794 8.28467 171.997 0 157.664 0C136.837 0 127.048 8.15566 120.225 19.9663Z" fill="url(#paint0_linear_46_1190)"/>
<defs>
<linearGradient id="paint0_linear_46_1190" x1="107.446" y1="0" x2="107.446" y2="136.169" gradientUnits="userSpaceOnUse">
<stop stop-color="#2B3AA6"/>
<stop offset="1" stop-color="#343DD4"/>
</linearGradient>
</defs>
</svg>
